<?xml version="1.0" encoding="UTF-8" standalone="no"?>
<svg xmlns="http://www.w3.org/2000/svg" xmlns:xlink="http://www.w3.org/1999/xlink" width="916.714mm" height="357.042mm" viewBox="-190.950134 283.394043 916.713928 357.042358">
    <path transform="matrix(1,0,0,-1,55.69986,558.407837)" style="stroke:#0000ff;stroke-width:0.050000mm;fill:none" d="M0,-54.599998L0.230662,-54.999516C3.27838,-54.98674,6.319774,-54.72065,9.323408,-54.204002L9.481191,-53.770504L9.777723,-54.123898C11.337876,-53.842049,12.88523,-53.492844,14.415214,-53.077316L22.278057,-82.02858C26.867399,-80.782166,31.344156,-79.152771,35.660973,-77.1576L35.711243,-76.583008L36.183716,-76.913841C40.486916,-74.889427,44.612701,-72.507408,48.517479,-69.792938L48.467209,-69.218346L48.989952,-69.462105C52.876236,-66.721214,56.525711,-63.658943,59.899807,-60.307655L59.750523,-59.750523L60.307655,-59.899807C63.658936,-56.5257,66.721207,-52.876225,69.462105,-48.989952L69.218346,-48.467209L69.792938,-48.517479C72.507408,-44.612698,74.889442,-40.486904,76.913841,-36.183716L76.583008,-35.711243L77.1576,-35.660973C79.152771,-31.344154,80.782181,-26.867405,82.02858,-22.278057L81.620735,-21.870209L82.177864,-21.720926C83.393112,-17.12323,84.220383,-12.431551,84.650925,-7.69549L84.178452,-7.36466L84.701195,-7.120901C85.099602,-2.382029,85.099602,2.382029,84.701195,7.120901L84.178452,7.36466L84.650925,7.69549C84.22039,12.431551,83.39312,17.12323,82.177864,21.720926L81.620735,21.870209L82.02858,22.278057C80.782166,26.867405,79.152771,31.344151,77.1576,35.660973L76.583008,35.711243L76.913841,36.183716C74.889435,40.486904,72.507401,44.612698,69.792938,48.517479L69.218346,48.467209L69.462105,48.989952C66.721214,52.876232,63.658943,56.525707,60.307655,59.899807L59.750523,59.750523L59.899807,60.307655C56.525703,63.658936,52.876228,66.721207,48.989952,69.462105L48.467209,69.218346L48.517479,69.792938C44.612701,72.507408,40.4869,74.889442,36.183716,76.913841L35.711243,76.583008L35.660973,77.1576C31.344145,79.152779,26.867407,80.782173,22.278057,82.02858L21.870209,81.620735L21.720926,82.177864C17.123234,83.393112,12.43155,84.220383,7.69549,84.650925L7.36466,84.178452L7.120901,84.701195C2.382029,85.099602,-2.382016,85.099602,-7.120901,84.701195L-7.36466,84.178452L-7.69549,84.650925C-12.431544,84.22039,-17.12323,83.39312,-21.720926,82.177864L-21.870209,81.620735L-22.278057,82.02858C-26.867395,80.782166,-31.344152,79.152771,-35.660973,77.1576L-35.711243,76.583008L-36.183716,76.913841C-40.486897,74.889442,-44.612698,72.507408,-48.517479,69.792938L-48.467209,69.218346L-48.989952,69.462105C-52.876236,66.721214,-56.525719,63.658932,-59.899807,60.307655L-59.750523,59.750523L-60.307655,59.899807C-63.658943,56.525696,-66.721199,52.876236,-69.462105,48.989952L-69.218346,48.467209L-69.792938,48.517479C-72.507408,44.612701,-74.889442,40.4869,-76.913841,36.183716L-76.583008,35.711243L-77.1576,35.660973C-79.152779,31.344139,-80.782188,26.867386,-82.02858,22.278057L-81.620735,21.870209L-82.177864,21.720926L-53.173912,14.054717C-53.54726,12.64222,-53.864162,11.215454,-54.123898,9.777723L-53.770504,9.481191L-54.204002,9.323408C-54.720646,6.319767,-54.986736,3.278395,-54.999516,0.230662L-54.599998,0L-54.999516,-0.230662C-54.986736,-3.278378,-54.720654,-6.319771,-54.204002,-9.323408L-53.770504,-9.481191L-54.123898,-9.777723C-53.582077,-12.776921,-52.791901,-15.725904,-51.761532,-18.594191L-51.307217,-18.674299L-51.603748,-19.027693C-50.549351,-21.887236,-49.25909,-24.654203,-47.746307,-27.299999L-47.284985,-27.299999L-47.515648,-27.699516C-45.980717,-30.332525,-44.22958,-32.833405,-42.280342,-35.176311L-41.826027,-35.096203L-41.983807,-35.529705C-40.01498,-37.856174,-37.856174,-40.01498,-35.529705,-41.983807L-35.096203,-41.826027L-35.176311,-42.280342C-32.833405,-44.22958,-30.332525,-45.980717,-27.699516,-47.515648L-27.299999,-47.284985L-27.299999,-47.746307C-24.654198,-49.25909,-21.887238,-50.549343,-19.027693,-51.603748L-18.674299,-51.307217L-18.594191,-51.761532C-15.725901,-52.791901,-12.776928,-53.582077,-9.777723,-54.123898L-9.481191,-53.770504L-9.323408,-54.204002C-6.319773,-54.720646,-3.27839,-54.986736,-0.230662,-54.999516L0,-54.599998z"/>
    <path transform="matrix(1,0,0,-1,576.227722,384.116547)" style="stroke:#ff0000;stroke-width:0.050000mm;fill:none" d="M35,14L35,-14L-35,-14L-35,14L35,14z"/>
    <path transform="matrix(1,0,0,-1,576.227722,384.116547)" style="stroke:#0000ff;stroke-width:0.050000mm;fill:none" d="M28.800545,79.972046C24.32626,81.583382,19.724529,82.816414,15.044021,83.658096L14.673271,83.216255L14.476,83.758255C9.789888,84.568161,5.043956,84.983383,0.288392,84.999512L0,84.5L-0.288392,84.999512C-5.043953,84.983383,-9.789886,84.568161,-14.476,83.758255L-14.673271,83.216255L-15.044021,83.658096C-19.724531,82.816422,-24.326262,81.583389,-28.800545,79.972046L-28.900703,79.40403L-29.342545,79.77478C-33.805805,78.13311,-38.123508,76.119728,-42.25,73.755928L-42.25,73.179146L-42.749512,73.467537C-46.859879,71.07579,-50.762367,68.343231,-54.41571,65.298775L-54.315556,64.730759L-54.857552,64.928032C-58.49017,61.858845,-61.858845,58.49017,-64.928032,54.857552L-64.730759,54.315556L-65.298775,54.41571C-68.343239,50.762367,-71.075798,46.859879,-73.467537,42.749512L-73.179146,42.25L-73.755928,42.25C-76.119728,38.123508,-78.13311,33.805798,-79.77478,29.342545L-79.40403,28.900703L-79.972046,28.800545C-80.809937,26.473906,-81.545929,24.111731,-82.177864,21.720926L-53.173912,14.054717C-53.956497,11.093938,-54.490417,8.072984,-54.770123,5.023307L-54.392231,4.758703L-54.810329,4.56374C-55.063221,1.526501,-55.063221,-1.52651,-54.810329,-4.56374L-54.392231,-4.758703L-54.770123,-5.023307C-54.491768,-8.058316,-53.961617,-11.064946,-53.185154,-14.01212L-52.739548,-14.131519L-53.065754,-14.457725C-53.068619,-14.447193,-53.074455,-14.425737,-53.077316,-14.415214L-82.02858,-22.278057C-81.43084,-24.478981,-80.744789,-26.654827,-79.972046,-28.800545L-79.40403,-28.900703L-79.77478,-29.342545C-78.13311,-33.805805,-76.119728,-38.123508,-73.755928,-42.25L-73.179146,-42.25L-73.467537,-42.749512C-71.075798,-46.859879,-68.343239,-50.762367,-65.298775,-54.41571L-64.730759,-54.315556L-64.928032,-54.857552C-61.858845,-58.49017,-58.49017,-61.858845,-54.857552,-64.928032L-54.315556,-64.730759L-54.41571,-65.298775C-50.762367,-68.343231,-46.859879,-71.07579,-42.749512,-73.467537L-42.25,-73.179146L-42.25,-73.755928C-38.123508,-76.119728,-33.805798,-78.13311,-29.342545,-79.77478L-28.900703,-79.40403L-28.800545,-79.972046C-24.32626,-81.583382,-19.724545,-82.816414,-15.044021,-83.658096L-14.673271,-83.216255L-14.476,-83.758255C-9.789886,-84.568161,-5.043953,-84.983383,-0.288392,-84.999512L-0,-84.5L0.288392,-84.999512C5.043956,-84.983383,9.789888,-84.568161,14.476,-83.758255L14.673271,-83.216255L15.044021,-83.658096C19.724533,-82.816422,24.326263,-81.583389,28.800545,-79.972046L28.900703,-79.40403L29.342545,-79.77478C33.805805,-78.133118,38.123493,-76.119736,42.25,-73.755928L42.25,-73.179146L42.749512,-73.467537C46.859882,-71.07579,50.762371,-68.343231,54.41571,-65.298775L54.315556,-64.730759L54.857552,-64.928032C58.490162,-61.858856,61.85886,-58.490158,64.928032,-54.857552L64.730759,-54.315556L65.298775,-54.41571C68.343231,-50.762371,71.07579,-46.859882,73.467537,-42.749512L73.179146,-42.25L73.755928,-42.25C76.119736,-38.123493,78.133118,-33.80579,79.77478,-29.342545L79.40403,-28.900703L79.972046,-28.800545C81.583382,-24.326256,82.816414,-19.724533,83.658096,-15.044021L83.216255,-14.673271L83.758255,-14.476C84.568161,-9.789883,84.983383,-5.043954,84.999512,-0.288392L84.5,-0L84.999512,0.288392C84.983383,5.043954,84.568161,9.789883,83.758255,14.476L83.216255,14.673271L83.658096,15.044021C82.816422,19.724537,81.583389,24.32626,79.972046,28.800545L79.40403,28.900703L79.77478,29.342545C78.133118,33.80579,76.119736,38.123493,73.755928,42.25L73.179146,42.25L73.467537,42.749512C71.07579,46.859882,68.343231,50.762371,65.298775,54.41571L64.730759,54.315556L64.928032,54.857552C61.85886,58.490158,58.490162,61.858856,54.857552,64.928032L54.315556,64.730759L54.41571,65.298775C50.762371,68.343231,46.859882,71.07579,42.749512,73.467537L42.25,73.179146L42.25,73.755928C38.123493,76.119743,33.805798,78.13311,29.342545,79.77478L28.900703,79.40403L28.800545,79.972046z"/>
    <path transform="matrix(1,0,0,-1,401.227478,389.116547)" style="stroke:#ff0000;stroke-width:0.050000mm;fill:none" d="M35,14L35,-14L-35,-14L-35,14L35,14z"/>
    <path transform="matrix(1,0,0,-1,401.227478,389.116547)" style="stroke:#0000ff;stroke-width:0.050000mm;fill:none" d="M59.750523,59.750523L59.899807,60.307655C56.525703,63.658936,52.876228,66.721207,48.989952,69.462105L48.467209,69.218346L48.517479,69.792938C44.612701,72.507408,40.4869,74.889442,36.183716,76.913841L35.711243,76.583008L35.660973,77.1576C31.344145,79.152779,26.867407,80.782173,22.278057,82.02858L21.870209,81.620735L21.720926,82.177864C17.123234,83.393112,12.43155,84.220383,7.69549,84.650925L7.36466,84.178452L7.120901,84.701195C2.382029,85.099602,-2.382016,85.099602,-7.120901,84.701195L-7.36466,84.178452L-7.69549,84.650925C-12.431544,84.22039,-17.12323,83.39312,-21.720926,82.177864L-21.870209,81.620735L-22.278057,82.02858C-26.867395,80.782166,-31.344152,79.152771,-35.660973,77.1576L-35.711243,76.583008L-36.183716,76.913841C-40.486897,74.889442,-44.612698,72.507408,-48.517479,69.792938L-48.467209,69.218346L-48.989952,69.462105C-52.876236,66.721214,-56.525719,63.658932,-59.899807,60.307655L-59.750523,59.750523L-60.307655,59.899807C-63.658943,56.525696,-66.721199,52.876236,-69.462105,48.989952L-69.218346,48.467209L-69.792938,48.517479C-72.507408,44.612701,-74.889442,40.4869,-76.913841,36.183716L-76.583008,35.711243L-77.1576,35.660973C-79.152779,31.344139,-80.782188,26.867386,-82.02858,22.278057L-81.620735,21.870209L-82.177864,21.720926L-53.173912,14.054717C-53.54726,12.64222,-53.864162,11.215454,-54.123898,9.777723L-53.770504,9.481191L-54.204002,9.323408C-54.720646,6.319767,-54.986736,3.278395,-54.999516,0.230662L-54.599998,0L-54.999516,-0.230662C-54.986736,-3.278378,-54.720654,-6.319771,-54.204002,-9.323408L-53.770504,-9.481191L-54.123898,-9.777723C-53.582077,-12.776921,-52.791901,-15.725904,-51.761532,-18.594191L-51.307217,-18.674299L-51.603748,-19.027693C-50.549351,-21.887236,-49.25909,-24.654203,-47.746307,-27.299999L-47.284985,-27.299999L-47.515648,-27.699516C-45.980717,-30.332525,-44.22958,-32.833405,-42.280342,-35.176311L-41.826027,-35.096203L-41.983807,-35.529705C-40.959644,-36.739914,-39.883549,-37.905357,-38.758698,-39.022598L-59.899807,-60.307655C-56.525696,-63.658943,-52.876236,-66.721199,-48.989952,-69.462105L-48.467209,-69.218346L-48.517479,-69.792938C-44.612701,-72.507408,-40.4869,-74.889442,-36.183716,-76.913841L-35.711243,-76.583008L-35.660973,-77.1576C-31.344152,-79.152779,-26.867414,-80.782173,-22.278057,-82.02858L-21.870209,-81.620735L-21.720926,-82.177864C-17.123232,-83.393112,-12.431547,-84.220383,-7.69549,-84.650925L-7.36466,-84.178452L-7.120901,-84.701195C-2.382016,-85.099602,2.382029,-85.099602,7.120901,-84.701195L7.36466,-84.178452L7.69549,-84.650925C12.431548,-84.22039,17.123234,-83.39312,21.720926,-82.177864L21.870209,-81.620735L22.278057,-82.02858C26.867399,-80.782166,31.344156,-79.152771,35.660973,-77.1576L35.711243,-76.583008L36.183716,-76.913841C40.486916,-74.889427,44.612701,-72.507408,48.517479,-69.792938L48.467209,-69.218346L48.989952,-69.462105C52.876236,-66.721214,56.525711,-63.658943,59.899807,-60.307655L59.750523,-59.750523L60.307655,-59.899807C63.658936,-56.5257,66.721207,-52.876225,69.462105,-48.989952L69.218346,-48.467209L69.792938,-48.517479C72.507408,-44.612698,74.889442,-40.486904,76.913841,-36.183716L76.583008,-35.711243L77.1576,-35.660973C79.152771,-31.344154,80.782181,-26.867405,82.02858,-22.278057L81.620735,-21.870209L82.177864,-21.720926C83.393112,-17.12323,84.220383,-12.431551,84.650925,-7.69549L84.178452,-7.36466L84.701195,-7.120901C85.099602,-2.382029,85.099602,2.382029,84.701195,7.120901L84.178452,7.36466L84.650925,7.69549C84.22039,12.431551,83.39312,17.12323,82.177864,21.720926L81.620735,21.870209L82.02858,22.278057C80.782166,26.867405,79.152771,31.344151,77.1576,35.660973L76.583008,35.711243L76.913841,36.183716C74.889435,40.486904,72.507401,44.612698,69.792938,48.517479L69.218346,48.467209L69.462105,48.989952C66.721214,52.876232,63.658943,56.525707,60.307655,59.899807L59.750523,59.750523z"/>
    <path transform="matrix(1,0,0,-1,231.227722,389.116547)" style="stroke:#ff0000;stroke-width:0.050000mm;fill:none" d="M35,14L35,-14L-35,-14L-35,14L35,14z"/>
    <path transform="matrix(1,0,0,-1,231.227722,389.116547)" style="stroke:#0000ff;stroke-width:0.050000mm;fill:none" d="M54.857552,64.928032L54.315556,64.730759L54.41571,65.298775C50.762371,68.343231,46.859882,71.07579,42.749512,73.467537L42.25,73.179146L42.25,73.755928C38.123493,76.119743,33.805798,78.13311,29.342545,79.77478L28.900703,79.40403L28.800545,79.972046C24.32626,81.583382,19.724529,82.816414,15.044021,83.658096L14.673271,83.216255L14.476,83.758255C9.789888,84.568161,5.043956,84.983383,0.288392,84.999512L0,84.5L-0.288392,84.999512C-5.043953,84.983383,-9.789886,84.568161,-14.476,83.758255L-14.673271,83.216255L-15.044021,83.658096C-19.724531,82.816422,-24.326262,81.583389,-28.800545,79.972046L-28.900703,79.40403L-29.342545,79.77478C-33.805805,78.13311,-38.123508,76.119728,-42.25,73.755928L-42.25,73.179146L-42.749512,73.467537C-46.859879,71.07579,-50.762367,68.343231,-54.41571,65.298775L-54.315556,64.730759L-54.857552,64.928032C-58.49017,61.858845,-61.858845,58.49017,-64.928032,54.857552L-64.730759,54.315556L-65.298775,54.41571C-68.343239,50.762367,-71.075798,46.859879,-73.467537,42.749512L-73.179146,42.25L-73.755928,42.25C-76.119728,38.123508,-78.13311,33.805798,-79.77478,29.342545L-79.40403,28.900703L-79.972046,28.800545C-80.809937,26.473906,-81.545929,24.111731,-82.177864,21.720926L-53.173912,14.054717C-53.956497,11.093938,-54.490417,8.072984,-54.770123,5.023307L-54.392231,4.758703L-54.810329,4.56374C-55.063221,1.526501,-55.063221,-1.52651,-54.810329,-4.56374L-54.392231,-4.758703L-54.770123,-5.023307C-54.491768,-8.058316,-53.961617,-11.064946,-53.185154,-14.01212L-52.739548,-14.131519L-53.065754,-14.457725C-52.264599,-17.398283,-51.220409,-20.267176,-49.943974,-23.03475L-49.484406,-23.074957L-49.749008,-23.45285C-48.449398,-26.209621,-46.922901,-28.853588,-45.185268,-31.357479L-44.7257,-31.317272L-44.920666,-31.735373C-43.162086,-34.224598,-41.199661,-36.563328,-39.053635,-38.727428L-38.608028,-38.608028L-38.727428,-39.053635C-36.563313,-41.199669,-34.224583,-43.162094,-31.735373,-44.920666L-31.317272,-44.7257L-31.357479,-45.185268C-28.853603,-46.922901,-26.209637,-48.449398,-23.45285,-49.749008L-23.074957,-49.484406L-23.03475,-49.943974C-20.140648,-51.278767,-17.13599,-52.359486,-14.054717,-53.173912L-21.720926,-82.177864C-19.516008,-82.760666,-17.288664,-83.254456,-15.044021,-83.658096L-14.673271,-83.216255L-14.476,-83.758255C-9.789886,-84.568161,-5.043953,-84.983383,-0.288392,-84.999512L-0,-84.5L0.288392,-84.999512C5.043956,-84.983383,9.789888,-84.568161,14.476,-83.758255L14.673271,-83.216255L15.044021,-83.658096C19.724533,-82.816422,24.326263,-81.583389,28.800545,-79.972046L28.900703,-79.40403L29.342545,-79.77478C33.805805,-78.133118,38.123493,-76.119736,42.25,-73.755928L42.25,-73.179146L42.749512,-73.467537C46.859882,-71.07579,50.762371,-68.343231,54.41571,-65.298775L54.315556,-64.730759L54.857552,-64.928032C58.490162,-61.858856,61.85886,-58.490158,64.928032,-54.857552L64.730759,-54.315556L65.298775,-54.41571C68.343231,-50.762371,71.07579,-46.859882,73.467537,-42.749512L73.179146,-42.25L73.755928,-42.25C76.119736,-38.123493,78.133118,-33.80579,79.77478,-29.342545L79.40403,-28.900703L79.972046,-28.800545C81.583382,-24.326256,82.816414,-19.724533,83.658096,-15.044021L83.216255,-14.673271L83.758255,-14.476C84.568161,-9.789883,84.983383,-5.043954,84.999512,-0.288392L84.5,-0L84.999512,0.288392C84.983383,5.043954,84.568161,9.789883,83.758255,14.476L83.216255,14.673271L83.658096,15.044021C82.816422,19.724537,81.583389,24.32626,79.972046,28.800545L79.40403,28.900703L79.77478,29.342545C78.133118,33.80579,76.119736,38.123493,73.755928,42.25L73.179146,42.25L73.467537,42.749512C71.07579,46.859882,68.343231,50.762371,65.298775,54.41571L64.730759,54.315556L64.928032,54.857552C61.85886,58.490158,58.490162,61.858856,54.857552,64.928032z"/>
    <path transform="matrix(1,0,0,-1,61.227478,390.602264)" style="stroke:#ff0000;stroke-width:0.050000mm;fill:none" d="M35,14L35,-14L-35,-14L-35,14L35,14z"/>
    <path transform="matrix(1,0,0,-1,61.227478,390.602264)" style="stroke:#0000ff;stroke-width:0.050000mm;fill:none" d="M-21.720926,82.177864L-21.870209,81.620735L-22.278057,82.02858C-26.867395,80.782166,-31.344152,79.152771,-35.660973,77.1576L-35.711243,76.583008L-36.183716,76.913841C-40.486897,74.889442,-44.612698,72.507408,-48.517479,69.792938L-48.467209,69.218346L-48.989952,69.462105C-52.876236,66.721214,-56.525719,63.658932,-59.899807,60.307655L-59.750523,59.750523L-60.307655,59.899807C-63.658943,56.525696,-66.721199,52.876236,-69.462105,48.989952L-69.218346,48.467209L-69.792938,48.517479C-72.507408,44.612701,-74.889442,40.4869,-76.913841,36.183716L-76.583008,35.711243L-77.1576,35.660973C-79.152779,31.344139,-80.782188,26.867386,-82.02858,22.278057L-81.620735,21.870209L-82.177864,21.720926L-53.173912,14.054717C-53.54726,12.64222,-53.864162,11.215454,-54.123898,9.777723L-53.770504,9.481191L-54.204002,9.323408C-54.720646,6.319767,-54.986736,3.278395,-54.999516,0.230662L-54.599998,0L-54.999516,-0.230662C-54.986736,-3.278378,-54.720654,-6.319771,-54.204002,-9.323408L-53.770504,-9.481191L-54.123898,-9.777723C-53.582077,-12.776921,-52.791901,-15.725904,-51.761532,-18.594191L-51.307217,-18.674299L-51.603748,-19.027693C-50.549351,-21.887236,-49.25909,-24.654203,-47.746307,-27.299999L-47.284985,-27.299999L-47.515648,-27.699516C-45.980717,-30.332525,-44.22958,-32.833405,-42.280342,-35.176311L-41.826027,-35.096203L-41.983807,-35.529705C-40.01498,-37.856174,-37.856174,-40.01498,-35.529705,-41.983807L-35.096203,-41.826027L-35.176311,-42.280342C-32.833405,-44.22958,-30.332525,-45.980717,-27.699516,-47.515648L-27.299999,-47.284985L-27.299999,-47.746307C-24.654198,-49.25909,-21.887238,-50.549343,-19.027693,-51.603748L-18.674299,-51.307217L-18.594191,-51.761532C-15.725901,-52.791901,-12.776928,-53.582077,-9.777723,-54.123898L-9.481191,-53.770504L-9.323408,-54.204002C-6.319773,-54.720646,-3.27839,-54.986736,-0.230662,-54.999516L-0,-54.599998L0.230662,-54.999516C3.27838,-54.98674,6.319774,-54.72065,9.323408,-54.204002L9.481191,-53.770504L9.777723,-54.123898C11.337876,-53.842049,12.88523,-53.492844,14.415214,-53.077316L22.278057,-82.02858C26.867399,-80.782166,31.344156,-79.152771,35.660973,-77.1576L35.711243,-76.583008L36.183716,-76.913841C40.486916,-74.889427,44.612701,-72.507408,48.517479,-69.792938L48.467209,-69.218346L48.989952,-69.462105C52.876236,-66.721214,56.525711,-63.658943,59.899807,-60.307655L59.750523,-59.750523L60.307655,-59.899807C63.658936,-56.5257,66.721207,-52.876225,69.462105,-48.989952L69.218346,-48.467209L69.792938,-48.517479C72.507408,-44.612698,74.889442,-40.486904,76.913841,-36.183716L76.583008,-35.711243L77.1576,-35.660973C79.152771,-31.344154,80.782181,-26.867405,82.02858,-22.278057L81.620735,-21.870209L82.177864,-21.720926C83.393112,-17.12323,84.220383,-12.431551,84.650925,-7.69549L84.178452,-7.36466L84.701195,-7.120901C85.099602,-2.382029,85.099602,2.382029,84.701195,7.120901L84.178452,7.36466L84.650925,7.69549C84.22039,12.431551,83.39312,17.12323,82.177864,21.720926L81.620735,21.870209L82.02858,22.278057C80.782166,26.867405,79.152771,31.344151,77.1576,35.660973L76.583008,35.711243L76.913841,36.183716C74.889435,40.486904,72.507401,44.612698,69.792938,48.517479L69.218346,48.467209L69.462105,48.989952C66.721214,52.876232,63.658943,56.525707,60.307655,59.899807L59.750523,59.750523L59.899807,60.307655C56.525703,63.658936,52.876228,66.721207,48.989952,69.462105L48.467209,69.218346L48.517479,69.792938C44.612701,72.507408,40.4869,74.889442,36.183716,76.913841L35.711243,76.583008L35.660973,77.1576C31.344145,79.152779,26.867407,80.782173,22.278057,82.02858L21.870209,81.620735L21.720926,82.177864C17.123234,83.393112,12.43155,84.220383,7.69549,84.650925L7.36466,84.178452L7.120901,84.701195C2.382029,85.099602,-2.382016,85.099602,-7.120901,84.701195L-7.36466,84.178452L-7.69549,84.650925C-12.431544,84.22039,-17.12323,83.39312,-21.720926,82.177864z"/>
    <path transform="matrix(1,0,0,-1,-108.772278,385.60202)" style="stroke:#0000ff;stroke-width:0.050000mm;fill:none" d="M-14.673271,83.216255L-15.044021,83.658096C-19.724531,82.816422,-24.326262,81.583389,-28.800545,79.972046L-28.900703,79.40403L-29.342545,79.77478C-33.805805,78.13311,-38.123508,76.119728,-42.25,73.755928L-42.25,73.179146L-42.749512,73.467537C-46.859879,71.07579,-50.762367,68.343231,-54.41571,65.298775L-54.315556,64.730759L-54.857552,64.928032C-58.49017,61.858845,-61.858845,58.49017,-64.928032,54.857552L-64.730759,54.315556L-65.298775,54.41571C-68.343239,50.762367,-71.075798,46.859879,-73.467537,42.749512L-73.179146,42.25L-73.755928,42.25C-76.119728,38.123508,-78.13311,33.805798,-79.77478,29.342545L-79.40403,28.900703L-79.972046,28.800545C-80.809937,26.473906,-81.545929,24.111731,-82.177864,21.720926L-53.173912,14.054717L-51.89621,18.88871L-74.612518,24.892994C-74.948723,24.981855,-75.232712,25.206758,-75.396248,25.513657C-75.559784,25.820553,-75.588081,26.181704,-75.474342,26.510328L-75.273758,27.089884L-75.645256,27.532621L-75.07608,27.632982C-73.534111,31.822357,-71.644157,35.875389,-69.426071,39.749477L-69.71505,40.25L-69.137093,40.25C-66.891075,44.107971,-64.326027,47.77124,-61.468906,51.201305L-61.66658,51.744404L-61.097404,51.644043C-58.215584,55.053383,-55.053383,58.215584,-51.644043,61.097404L-51.744404,61.66658L-51.201305,61.468906C-47.771194,64.32605,-44.108025,66.891037,-40.25,69.137093L-40.25,69.71505L-39.749477,69.426071C-35.875324,71.64418,-31.822399,73.534088,-27.632982,75.07608L-27.532621,75.645256L-27.089884,75.273758C-22.889492,76.785416,-18.569832,77.942871,-14.176351,78.733925L-13.978679,79.277023L-13.607177,78.83429C-9.208092,79.59359,-4.753066,79.98336,-0.288977,79.999481L0,80.5L0.288977,79.999481C4.753078,79.98336,9.208105,79.59359,13.607177,78.83429L13.978679,79.277023L14.176351,78.733925C18.56982,77.942856,22.889484,76.785416,27.089884,75.273758L27.532621,75.645256L27.632982,75.07608C31.822346,73.534126,35.875393,71.644157,39.749477,69.426071L40.25,69.71505L40.25,69.137093C44.108021,66.891037,47.771191,64.326065,51.201305,61.468906L51.744404,61.66658L51.644043,61.097404C55.053432,58.215538,58.215542,55.053429,61.097404,51.644043L61.66658,51.744404L61.468906,51.201305C64.326012,47.77124,66.891075,44.107956,69.137093,40.25L69.71505,40.25L69.426071,39.749477C71.64418,35.875328,73.534088,31.822416,75.07608,27.632982L75.645256,27.532621L75.273758,27.089884C76.785439,22.88942,77.942848,18.569901,78.733925,14.176351L79.277023,13.978679L78.83429,13.607177C79.593597,9.208025,79.983353,4.753148,79.999481,0.288977L80.5,-0L79.999481,-0.288977C79.983353,-4.753149,79.593597,-9.208025,78.83429,-13.607177L79.277023,-13.978679L78.733925,-14.176351C77.942856,-18.569826,76.785416,-22.88949,75.273758,-27.089884L75.645256,-27.532621L75.07608,-27.632982C73.534126,-31.822346,71.644157,-35.875393,69.426071,-39.749477L69.71505,-40.25L69.137093,-40.25C66.891083,-44.107964,64.326019,-47.771248,61.468906,-51.201305L61.66658,-51.744404L61.097404,-51.644043C58.215542,-55.053429,55.053432,-58.215538,51.644043,-61.097404L51.744404,-61.66658L51.201305,-61.468906C47.77124,-64.326012,44.107956,-66.891075,40.25,-69.137093L40.25,-69.71505L39.749477,-69.426071C35.875397,-71.64415,31.82235,-73.534119,27.632982,-75.07608L27.532621,-75.645256L27.089884,-75.273758C25.075729,-75.998619,23.033382,-76.642326,20.967583,-77.203369L22.278057,-82.02858C24.478981,-81.430832,26.654812,-80.744797,28.800545,-79.972046L28.900703,-79.40403L29.342545,-79.77478C33.805805,-78.133118,38.123493,-76.119736,42.25,-73.755928L42.25,-73.179146L42.749512,-73.467537C46.859882,-71.07579,50.762371,-68.343231,54.41571,-65.298775L54.315556,-64.730759L54.857552,-64.928032C58.490162,-61.858856,61.85886,-58.490158,64.928032,-54.857552L64.730759,-54.315556L65.298775,-54.41571C68.343231,-50.762371,71.07579,-46.859882,73.467537,-42.749512L73.179146,-42.25L73.755928,-42.25C76.119736,-38.123493,78.133118,-33.80579,79.77478,-29.342545L79.40403,-28.900703L79.972046,-28.800545C81.583382,-24.326256,82.816414,-19.724533,83.658096,-15.044021L83.216255,-14.673271L83.758255,-14.476C84.568161,-9.789883,84.983383,-5.043954,84.999512,-0.288392L84.5,-0L84.999512,0.288392C84.983383,5.043954,84.568161,9.789883,83.758255,14.476L83.216255,14.673271L83.658096,15.044021C82.816422,19.724537,81.583389,24.32626,79.972046,28.800545L79.40403,28.900703L79.77478,29.342545C78.133118,33.80579,76.119736,38.123493,73.755928,42.25L73.179146,42.25L73.467537,42.749512C71.07579,46.859882,68.343231,50.762371,65.298775,54.41571L64.730759,54.315556L64.928032,54.857552C61.85886,58.490158,58.490162,61.858856,54.857552,64.928032L54.315556,64.730759L54.41571,65.298775C50.762371,68.343231,46.859882,71.07579,42.749512,73.467537L42.25,73.179146L42.25,73.755928C38.123493,76.119743,33.805798,78.13311,29.342545,79.77478L28.900703,79.40403L28.800545,79.972046C24.32626,81.583382,19.724529,82.816414,15.044021,83.658096L14.673271,83.216255L14.476,83.758255C9.789888,84.568161,5.043956,84.983383,0.288392,84.999512L0,84.5L-0.288392,84.999512C-5.043953,84.983383,-9.789886,84.568161,-14.476,83.758255L-14.673271,83.216255z"/>
    <path transform="translate(-104.456055,384.986328)" style="stroke:#000000;stroke-width:0.050000mm;fill:none" d="M64.097168,28.75L62.058594,28.75L62.058594,27.114258L61.899902,27.347656C61.17083,28.382196,59.992889,29.008978,58.727539,29.035645C56.652557,29.140345,54.708073,28.02113,53.756348,26.174316C53.134567,24.972195,52.82449,23.633348,52.854492,22.280273C52.829613,20.933479,53.109558,19.598366,53.67334,18.375C54.57703,16.491339,56.540646,15.351511,58.624512,15.500977C59.933823,15.559134,61.144928,16.212801,61.912109,17.275391L61.912109,10.854492L64.097168,10.854492L64.097168,28.75zM37.28418,15.499512L37.669922,15.517578C38.580753,15.540747,39.473957,15.776213,40.277832,16.205078C40.830311,16.494875,41.267704,16.964489,41.517578,17.536133C41.765614,18.131651,41.889057,18.771456,41.880371,19.416504C41.891083,19.740292,41.896294,20.064243,41.895996,20.388184L41.895996,23.317871C41.876984,24.482712,41.907936,25.647861,41.98877,26.810059C42.047825,27.492563,42.253517,28.154293,42.591797,28.75L40.296875,28.75C40.055981,28.247513,39.907146,27.705902,39.857422,27.150879L39.553711,27.400879C38.47356,28.321884,37.134727,28.886141,35.721191,29.016113C34.872074,29.10145,34.014324,29.022026,33.195313,28.782227C32.066322,28.454849,31.173866,27.587467,30.814453,26.468262C30.473328,25.364843,30.659958,24.165804,31.320313,23.218262C31.741436,22.641575,32.310852,22.189919,32.968262,21.911133C33.662891,21.62252,34.395821,21.436661,35.144043,21.359375C35.562202,21.301773,35.980282,21.248108,36.399414,21.198242L36.998535,21.112793C37.906086,20.995125,38.801506,20.797577,39.674316,20.522461C39.728706,19.945749,39.680096,19.363895,39.530762,18.804199C39.383614,18.329952,39.042286,17.939817,38.591797,17.730957C37.959312,17.427933,37.262299,17.284107,36.561523,17.312012C35.92448,17.288008,35.289063,17.391951,34.692871,17.617676C34.150879,17.864466,33.723934,18.309212,33.499512,18.86084C33.366062,19.156424,33.259197,19.463293,33.180176,19.777832L31.031738,19.484863C31.177589,18.678068,31.507603,17.915777,31.996094,17.257324C32.507324,16.648064,33.180084,16.195324,33.937012,15.951172C35.014797,15.592995,36.150013,15.43981,37.28418,15.499512zM22.989746,15.5L23.3125,15.520508C25.830223,15.687544,27.937439,17.493929,28.487305,19.956543C28.692894,20.853527,28.769346,21.775248,28.714355,22.693848C28.701965,23.703518,28.511368,24.703093,28.151367,25.646484C27.565536,27.010864,26.447458,28.076725,25.056641,28.59668C23.304565,29.273375,21.350523,29.188091,19.664063,28.361328C18.290321,27.630112,17.287436,26.354258,16.901367,24.84668C16.446907,23.081713,16.468296,21.228607,16.963379,19.474609C17.464558,17.775278,18.760384,16.424633,20.4375,15.853516C21.258408,15.575899,22.12429,15.455965,22.989746,15.5zM5.583008,17.23877L5.942871,16.82959C6.772982,15.956977,7.931055,15.472173,9.135254,15.493164C10.30195,15.481328,11.440017,15.854619,12.373047,16.555176C12.965416,17.02062,13.444036,17.614975,13.772461,18.292969C14.35252,19.467527,14.645863,20.76289,14.628418,22.072754C14.658722,23.295485,14.439753,24.511608,13.984863,25.646973C13.363508,27.111042,12.159749,28.24898,10.663086,28.787109C9.700384,29.106918,8.663961,29.130898,7.6875,28.855957C6.754234,28.561537,5.953515,27.949638,5.424316,27.126465L5.424316,28.75L3.385742,28.75L3.385742,10.854492L5.583008,10.854492L5.583008,17.23877zM-39.760254,15.5L-39.437988,15.520508C-36.920078,15.687326,-34.812603,17.493763,-34.262695,19.956543C-34.057106,20.853529,-33.980652,21.775248,-34.035645,22.693848C-34.048035,23.703516,-34.238632,24.703093,-34.598633,25.646484C-35.18454,27.010803,-36.302597,28.076649,-37.693359,28.59668C-39.445435,29.273375,-41.399479,29.188097,-43.085938,28.361328C-44.45969,27.630129,-45.462582,26.354269,-45.848633,24.84668C-46.303097,23.081715,-46.281708,21.228607,-45.786621,19.474609C-45.285446,17.775278,-43.98962,16.424631,-42.3125,15.853516C-41.491589,15.5759,-40.62571,15.455963,-39.760254,15.5zM-25.46582,15.499512L-25.080078,15.517578C-24.169252,15.540747,-23.276047,15.776216,-22.472168,16.205078C-21.919725,16.494921,-21.482338,16.964521,-21.232422,17.536133C-20.984436,18.131666,-20.860996,18.771461,-20.869629,19.416504C-20.858913,19.740248,-20.853703,20.064293,-20.854004,20.388184L-20.854004,23.317871C-20.873022,24.482725,-20.84207,25.647852,-20.76123,26.810059C-20.702227,27.492577,-20.496531,28.15431,-20.158203,28.75L-22.453125,28.75C-22.694021,28.247513,-22.842861,27.705902,-22.892578,27.150879L-23.196289,27.400879C-24.276443,28.321877,-25.615278,28.886131,-27.028809,29.016113C-27.877926,29.10145,-28.735676,29.022026,-29.554688,28.782227C-30.683704,28.454887,-31.576172,27.587494,-31.935547,26.468262C-32.276722,25.364841,-32.090088,24.165789,-31.429688,23.218262C-31.00882,22.641331,-30.439323,22.189617,-29.781738,21.911133C-29.087107,21.622509,-28.354181,21.436649,-27.605957,21.359375C-27.187798,21.301773,-26.769718,21.248108,-26.350586,21.198242L-25.751465,21.112793C-24.843901,20.995121,-23.948509,20.797581,-23.075684,20.522461C-23.021294,19.945745,-23.069904,19.363894,-23.219238,18.804199C-23.366386,18.32995,-23.707714,17.939817,-24.158203,17.730957C-24.790688,17.427933,-25.4877,17.284107,-26.188477,17.312012C-26.825516,17.288013,-27.460936,17.391953,-28.057129,17.617676C-28.599142,17.864437,-29.026089,18.309193,-29.250488,18.86084C-29.38394,19.156424,-29.490803,19.463293,-29.569824,19.777832L-31.718262,19.484863C-31.572411,18.67807,-31.242397,17.915779,-30.753906,17.257324C-30.242674,16.648066,-29.569914,16.195328,-28.812988,15.951172C-27.735203,15.592993,-26.599991,15.43981,-25.46582,15.499512zM50.437012,15.504395L50.716309,15.537598C51.321739,15.643301,51.899963,15.868914,52.416992,16.201172L51.660156,18.239746L51.257324,18.03125C50.770897,17.804462,50.229923,17.720966,49.697754,17.790527C48.985752,17.912731,48.380142,18.378721,48.07959,19.035645C47.795868,19.752411,47.631756,20.51082,47.59375,21.280762L47.570801,21.962891L47.570801,28.75L45.373535,28.75L45.373535,15.786133L47.351074,15.786133L47.351074,17.751465L47.538574,17.421387C47.813053,16.913652,48.166969,16.453079,48.586914,16.057129C49.103439,15.630265,49.770981,15.430833,50.437012,15.504395zM-3.321777,15.509766L-2.881348,15.560059C-2.103494,15.656667,-1.379665,16.008963,-0.82373,16.561523C-0.365833,17.062031,-0.057067,17.68041,0.067871,18.347168C0.168925,18.84201,0.217855,19.346043,0.213867,19.851074L0.213867,28.75L-1.971191,28.75L-1.971191,20.583496C-1.94082,19.943502,-2.013023,19.302736,-2.185059,18.685547C-2.376644,18.191444,-2.762648,17.79785,-3.25293,17.59668C-4.505616,17.118126,-5.923299,17.503925,-6.760742,18.55127C-7.116704,19.06591,-7.335165,19.662811,-7.395508,20.285645C-7.434583,20.594963,-7.453502,20.906487,-7.452148,21.218262L-7.452148,28.75L-9.649414,28.75L-9.649414,20.327148C-9.627689,19.717737,-9.730536,19.110289,-9.95166,18.541992C-10.192195,17.944534,-10.737945,17.523863,-11.376953,17.443359C-12.479623,17.238007,-13.607995,17.635588,-14.338379,18.486816C-14.700983,18.969872,-14.934397,19.537355,-15.016602,20.135742C-15.115703,20.760134,-15.161927,21.391754,-15.154785,22.023926L-15.154785,28.75L-17.352051,28.75L-17.352051,15.786133L-15.386719,15.786133L-15.386719,17.60498L-15.228027,17.372559C-14.275721,16.070433,-12.710985,15.360872,-11.104004,15.502441C-10.300984,15.514956,-9.521377,15.775394,-8.87207,16.248047C-8.37176,16.636528,-7.996823,17.163614,-7.793945,17.763672L-7.598145,17.48877C-6.965123,16.581205,-6.03277,15.924945,-4.964844,15.635254C-4.427599,15.504459,-3.872652,15.462074,-3.321777,15.509766zM-48.126465,12.966309L-57.831055,12.966309L-57.831055,18.508301L-49.432617,18.508301L-49.432617,20.620117L-57.831055,20.620117L-57.831055,28.75L-60.199219,28.75L-60.199219,10.854492L-48.126465,10.854492L-48.126465,12.966309zM39.356445,22.363281C38.18346,22.727404,36.979275,22.981905,35.759277,23.123535L35.45752,23.174316C34.915894,23.239937,34.389961,23.40081,33.904297,23.649414C33.08194,24.157179,32.764851,25.196253,33.163574,26.07666C33.466625,26.697016,34.053005,27.130875,34.734863,27.239258C35.8965,27.470394,37.102364,27.249304,38.106445,26.621094C38.99683,26.053555,39.561539,25.093065,39.624512,24.039063C39.679203,23.442266,39.695839,22.842562,39.674316,22.243652L39.356445,22.363281zM-23.393555,22.363281C-24.566542,22.727388,-25.770725,22.98189,-26.990723,23.123535L-27.29248,23.174316C-27.83411,23.239941,-28.360043,23.40081,-28.845703,23.649414C-29.668058,24.157179,-29.985149,25.196255,-29.586426,26.07666C-29.2834,26.697041,-28.697012,27.130903,-28.015137,27.239258C-26.853498,27.470394,-25.647636,27.249304,-24.643555,26.621094C-23.753168,26.053556,-23.188459,25.093065,-23.125488,24.039063C-23.070797,23.442276,-23.054161,22.842562,-23.075684,22.243652L-23.393555,22.363281zM22.255859,17.331055L21.870117,17.38916C20.674957,17.652197,19.694157,18.501305,19.262695,19.646484C18.961016,20.486816,18.817181,21.375475,18.838379,22.268066C18.826172,23.002962,18.917564,23.735914,19.109863,24.445313C19.358631,25.406696,19.971338,26.234083,20.818359,26.752441C22.072336,27.47757,23.63558,27.392715,24.803711,26.536133C25.491882,26.006582,25.982397,25.261013,26.196289,24.419434C26.563948,22.996571,26.563444,21.50416,26.194824,20.081543C25.903746,19.003021,25.157087,18.104816,24.149902,17.621582C23.554619,17.361364,22.901772,17.261223,22.255859,17.331055zM8.585938,17.319336L8.244141,17.37793C7.53295,17.560345,6.902,17.97291,6.449707,18.55127C5.987491,19.132713,5.677422,19.819963,5.547363,20.55127C5.318117,21.887926,5.352278,23.256041,5.647949,24.57959C5.907462,25.641161,6.63051,26.528749,7.617676,26.997559C8.804011,27.497643,10.17668,27.211166,11.063965,26.27832C11.574839,25.766609,11.939331,25.127483,12.119629,24.427246C12.471346,22.989365,12.475027,21.488913,12.130371,20.049316C11.941727,19.236742,11.48984,18.508949,10.845215,17.979492C10.214715,17.458624,9.397693,17.219894,8.585938,17.319336zM-40.494141,17.331055L-40.879883,17.38916C-42.075054,17.652174,-43.055859,18.501289,-43.487305,19.646484C-43.788979,20.486814,-43.932812,21.375475,-43.911621,22.268066C-43.923828,23.00296,-43.832432,23.73592,-43.640137,24.445313C-43.391392,25.406704,-42.778679,26.234098,-41.931641,26.752441C-40.677666,27.477589,-39.11441,27.392742,-37.946289,26.536133C-37.258118,26.00658,-36.767605,25.261013,-36.553711,24.419434C-36.18605,22.996569,-36.186554,21.504158,-36.555176,20.081543C-36.846542,19.003159,-37.593102,18.105082,-38.600098,17.621582C-39.195377,17.361359,-39.848228,17.261217,-40.494141,17.331055zM58.184082,17.330566L57.84082,17.386719C56.878235,17.625614,56.07732,18.290611,55.665527,19.192871C55.330883,19.972786,55.148434,20.809284,55.12793,21.657715C55.057865,22.597689,55.141491,23.542976,55.375488,24.456055C55.638485,25.517296,56.340996,26.41637,57.307129,26.928223C58.487453,27.503685,59.903118,27.265047,60.82959,26.334473C61.322899,25.850687,61.673569,25.240582,61.843262,24.570801C62.064934,23.671852,62.144501,22.743876,62.079102,21.820313C62.055668,21.095245,61.926201,20.377502,61.694824,19.689941C61.361122,18.679968,60.593651,17.872192,59.602051,17.487305C59.146759,17.33102,58.662518,17.2775,58.184082,17.330566zM-15.439453,-15.551758L-22.580566,-15.551758L-23.544922,-10.742188C-23.160027,-11.013352,-22.747379,-11.242838,-22.313965,-11.426758C-20.592709,-12.153801,-18.623158,-11.975883,-17.060059,-10.952148C-15.628845,-9.988356,-14.727646,-8.412703,-14.622559,-6.69043C-14.514644,-5.530127,-14.695997,-4.361146,-15.150391,-3.288086C-15.635501,-2.160924,-16.447334,-1.204856,-17.480957,-0.543457C-18.456768,0.038283,-19.57716,0.332474,-20.712891,0.305176C-21.641302,0.324979,-22.563078,0.142689,-23.414063,-0.229004C-24.997555,-0.950448,-26.114037,-2.418121,-26.386719,-4.136719L-26.462402,-4.6875L-24.155273,-4.882813L-24.080566,-4.474609C-23.952925,-3.774745,-23.645308,-3.120133,-23.187988,-2.575195C-22.463348,-1.776382,-21.393414,-1.382223,-20.32373,-1.52002C-19.298037,-1.626115,-18.367447,-2.16881,-17.77002,-3.009277C-17.271837,-3.706817,-16.985628,-4.533401,-16.945801,-5.389648C-16.876879,-6.120121,-16.961037,-6.857096,-17.192871,-7.553223C-17.666615,-8.900778,-18.906193,-9.830174,-20.33252,-9.907227C-21.78355,-10.075337,-23.205975,-9.411263,-24.008789,-8.190918L-26.071777,-8.459473L-24.338379,-17.651367L-15.439453,-17.651367L-15.439453,-15.551758zM22.928223,-13.240234C23.608158,-13.210297,24.269768,-13.009412,24.851563,-12.65625C25.510233,-12.233934,25.99161,-11.584916,26.20459,-10.832031C26.388287,-10.204482,26.475708,-9.552697,26.463867,-8.898926L26.463867,0L24.278809,0L24.278809,-8.166504C24.308836,-8.806614,24.236805,-9.447466,24.06543,-10.064941C23.826368,-10.66648,23.309317,-11.113935,22.679688,-11.26416C21.611607,-11.531243,20.481668,-11.219862,19.701172,-10.443359C19.298794,-10.00648,19.02952,-9.464038,18.924805,-8.879395C18.836931,-8.435631,18.794395,-7.984105,18.797852,-7.531738L18.797852,0L16.600586,0L16.600586,-8.422852C16.622311,-9.032261,16.519464,-9.639712,16.29834,-10.208008C16.057806,-10.805465,15.512055,-11.226137,14.873047,-11.306641C13.770371,-11.51204,12.641983,-11.114452,11.911621,-10.263184C11.549012,-9.780132,11.315598,-9.212646,11.233398,-8.614258C11.134295,-7.989861,11.088073,-7.358248,11.095215,-6.726074L11.095215,0L8.897949,0L8.897949,-12.963867L10.863281,-12.963867L10.863281,-11.14502L11.021973,-11.377441C11.974266,-12.679588,13.539011,-13.389153,15.145996,-13.247559C15.949022,-13.235072,16.728636,-12.974631,17.37793,-12.501953C17.878239,-12.11347,18.253178,-11.586384,18.456055,-10.986328L18.651855,-11.26123C19.284853,-12.168821,20.217213,-12.825085,21.285156,-13.114746C21.822403,-13.245541,22.377348,-13.287924,22.928223,-13.240234zM2.178223,-13.240234C2.858157,-13.210293,3.519765,-13.009409,4.101563,-12.65625C4.760232,-12.233934,5.24161,-11.584915,5.45459,-10.832031C5.638289,-10.204483,5.72571,-9.552696,5.713867,-8.898926L5.713867,0L3.528809,0L3.528809,-8.166504C3.558836,-8.806616,3.486807,-9.447464,3.31543,-10.064941C3.076368,-10.666482,2.559318,-11.113936,1.929688,-11.26416C0.861607,-11.531261,-0.26834,-11.219878,-1.048828,-10.443359C-1.451206,-10.00648,-1.72048,-9.464038,-1.825195,-8.879395C-1.913068,-8.435631,-1.955603,-7.984104,-1.952148,-7.531738L-1.952148,0L-4.149414,0L-4.149414,-8.422852C-4.12769,-9.032263,-4.230537,-9.639711,-4.45166,-10.208008C-4.691936,-10.805442,-5.237572,-11.226169,-5.876465,-11.306641C-6.979296,-11.512164,-8.107887,-11.114571,-8.838379,-10.263184C-9.200987,-9.780132,-9.434401,-9.212646,-9.516602,-8.614258C-9.615705,-7.989861,-9.661927,-7.358248,-9.654785,-6.726074L-9.654785,0L-11.852051,0L-11.852051,-12.963867L-9.886719,-12.963867L-9.886719,-11.14502L-9.728027,-11.377441C-8.775736,-12.67959,-7.210989,-13.389154,-5.604004,-13.247559C-4.800984,-13.235044,-4.021375,-12.974606,-3.37207,-12.501953C-2.871761,-12.113471,-2.496824,-11.586384,-2.293945,-10.986328L-2.098145,-11.26123C-1.465147,-12.168823,-0.532786,-12.825089,0.535156,-13.114746C1.072401,-13.245541,1.627348,-13.287924,2.178223,-13.240234z"/>
    <path transform="translate(-114.257324,540.96875)" style="stroke:#000000;stroke-width:0.050000mm;fill:none" d="M-10.931641,29.881348L-10.534668,29.921387C-8.847202,30.147045,-7.389716,31.214594,-6.665527,32.755371C-5.980749,34.242657,-5.713247,35.888012,-5.891602,37.515625C-5.98853,38.842758,-6.435906,40.120518,-7.187988,41.218262C-8.36048,42.822731,-10.325359,43.644516,-12.291016,43.352539C-13.32401,43.163628,-14.252931,42.605545,-14.904785,41.782227L-14.904785,48.093262L-17.102051,48.093262L-17.102051,30.161133L-15.100098,30.161133L-15.100098,31.845703L-14.92041,31.606445C-14.334859,30.800854,-13.482461,30.228611,-12.515137,29.991699C-11.995171,29.880173,-11.462048,29.843019,-10.931641,29.881348zM-45.899414,24.945801L-45.268066,25.009766C-43.90765,25.17267,-42.628551,25.745037,-41.600586,26.650879C-40.732368,27.437639,-40.07457,28.428965,-39.687012,29.534668L-39.489746,30.136719L-41.821289,30.686035L-41.98584,30.214355C-42.265804,29.407734,-42.729717,28.677355,-43.34082,28.081055C-44.013588,27.483984,-44.853901,27.108757,-45.747559,27.006348C-46.961746,26.838282,-48.19857,27.011566,-49.319824,27.506836C-50.598026,28.126617,-51.567158,29.242361,-52.001953,30.594727C-52.53907,32.226383,-52.69902,33.95871,-52.469727,35.661133C-52.361904,36.764,-52.039074,37.835178,-51.519531,38.813965C-50.905869,39.88501,-49.916748,40.690575,-48.743652,41.074707C-47.234512,41.613731,-45.569458,41.499088,-44.148438,40.758301C-43.205532,40.221153,-42.466022,39.388115,-42.044434,38.388184C-41.828846,37.893631,-41.664104,37.378464,-41.552734,36.850586L-39.18457,37.44873C-39.447037,38.563496,-39.920792,39.617752,-40.580078,40.554199C-41.691128,42.08065,-43.379005,43.085426,-45.250488,43.334473C-46.771664,43.545959,-48.32061,43.421627,-49.788574,42.970215C-51.372639,42.439281,-52.705292,41.343052,-53.531738,39.891113C-54.523468,38.103146,-55.031239,36.087383,-55.004883,34.042969C-55.02206,32.754154,-54.818943,31.471876,-54.404297,30.251465C-53.976551,28.987993,-53.234692,27.85379,-52.248535,26.955566C-50.818466,25.734589,-49.022045,25.025818,-47.143555,24.941406C-46.729153,24.917236,-46.313637,24.918709,-45.899414,24.945801zM16.489746,29.875L16.8125,29.895508C19.330225,30.062544,21.437439,31.868929,21.987305,34.331543C22.192894,35.228531,22.269344,36.150249,22.214355,37.068848C22.201958,38.078522,22.011368,39.078091,21.651367,40.021484C21.065533,41.38586,19.947456,42.451721,18.556641,42.97168C16.804567,43.648376,14.850521,43.563091,13.164063,42.736328C11.79032,42.005112,10.787435,40.729259,10.401367,39.22168C9.946909,37.456711,9.9683,35.603611,10.463379,33.849609C10.964558,32.150276,12.260383,30.799633,13.9375,30.228516C14.758408,29.950897,15.624288,29.830963,16.489746,29.875zM30.78418,29.874512L31.169922,29.892578C32.08075,29.915747,32.973953,30.151213,33.777832,30.580078C34.330311,30.869875,34.767708,31.339487,35.017578,31.911133C35.265625,32.506653,35.389065,33.146454,35.380371,33.791504C35.391087,34.11525,35.396297,34.43927,35.395996,34.763184L35.395996,37.692871C35.37698,38.857712,35.407932,40.022861,35.48877,41.185059C35.547844,41.867561,35.753536,42.529282,36.091797,43.125L33.796875,43.125C33.555977,42.622517,33.407139,42.080902,33.357422,41.525879L33.053711,41.775879C31.97356,42.696884,30.634726,43.261139,29.221191,43.391113C28.372074,43.476444,27.514326,43.397022,26.695313,43.157227C25.566328,42.829838,24.673878,41.96246,24.314453,40.843262C23.973324,39.739841,24.15995,38.540798,24.820313,37.593262C25.241436,37.016575,25.81085,36.564919,26.468262,36.286133C27.162897,35.99752,27.895824,35.811661,28.644043,35.734375C29.061909,35.676819,29.480591,35.623077,29.899414,35.573242L30.498535,35.487793C31.406088,35.370125,32.301502,35.172581,33.174316,34.897461C33.228703,34.320747,33.180099,33.738892,33.030762,33.179199C32.883602,32.704952,32.542294,32.314804,32.091797,32.105957C31.459311,31.802933,30.762299,31.659107,30.061523,31.687012C29.424482,31.663006,28.789063,31.766943,28.192871,31.992676C27.650881,32.239464,27.223934,32.684212,26.999512,33.23584C26.86606,33.531422,26.759197,33.838291,26.680176,34.152832L24.531738,33.859863C24.677591,33.05307,25.007603,32.290779,25.496094,31.632324C26.007326,31.023066,26.680088,30.570332,27.437012,30.326172C28.514795,29.967991,29.650007,29.814808,30.78418,29.874512zM-0.916992,31.61377L-0.557129,31.20459C0.272983,30.331976,1.431056,29.847174,2.635254,29.868164C3.801952,29.856329,4.940018,30.22962,5.873047,30.930176C6.465416,31.39562,6.944037,31.989975,7.272461,32.667969C7.852519,33.842525,8.145862,35.137886,8.128418,36.447754C8.158721,37.670486,7.939752,38.886608,7.484863,40.021973C6.863507,41.486042,5.659749,42.623978,4.163086,43.162109C3.200386,43.481918,2.163964,43.505898,1.1875,43.230957C0.254234,42.936539,-0.546483,42.324642,-1.075684,41.501465L-1.075684,43.125L-3.114258,43.125L-3.114258,25.229492L-0.916992,25.229492L-0.916992,31.61377zM57.597168,43.125L55.558594,43.125L55.558594,41.489258L55.399902,41.722656C54.670837,42.757206,53.492889,43.383972,52.227539,43.410645C50.152557,43.515343,48.208069,42.396133,47.256348,40.549316C46.634571,39.347187,46.324501,38.008347,46.354492,36.655273C46.32962,35.308475,46.609558,33.97337,47.17334,32.75C48.077026,30.866337,50.040646,29.726515,52.124512,29.875977C53.433819,29.934134,54.64492,30.587807,55.412109,31.650391L55.412109,25.229492L57.597168,25.229492L57.597168,43.125zM-34.404785,31.650391L-34.007813,31.23291C-33.073132,30.333963,-31.819521,29.843025,-30.522949,29.868164C-29.553967,29.837746,-28.59639,30.086422,-27.764648,30.584473C-26.943726,31.092571,-26.381292,31.930168,-26.22168,32.882324C-26.094038,33.550392,-26.034168,34.22958,-26.042969,34.909668L-26.042969,43.125L-28.240234,43.125L-28.240234,34.909668C-28.220373,34.327141,-28.315121,33.746227,-28.519043,33.200195C-28.834429,32.436844,-29.538147,31.903881,-30.358398,31.807129C-31.611649,31.585482,-32.886715,32.056904,-33.694336,33.040527C-34.034367,33.523758,-34.247265,34.084717,-34.313477,34.671875C-34.377815,35.12257,-34.408337,35.577461,-34.404785,36.032715L-34.404785,43.125L-36.602051,43.125L-36.602051,25.229492L-34.404785,25.229492L-34.404785,31.650391zM43.937012,29.879395L44.216309,29.912598C44.821743,30.018286,45.399967,30.243908,45.916992,30.576172L45.160156,32.614746L44.757324,32.40625C44.270905,32.179443,43.729923,32.095947,43.197754,32.165527C42.485748,32.287716,41.880138,32.753716,41.57959,33.410645C41.295864,34.127411,41.131744,34.885818,41.09375,35.655762L41.070801,36.337891L41.070801,43.125L38.873535,43.125L38.873535,30.161133L40.851074,30.161133L40.851074,32.126465L41.038574,31.796387C41.313049,31.288652,41.666969,30.828079,42.086914,30.432129C42.603439,30.005266,43.270981,29.805832,43.937012,29.879395zM-20.392578,43.125L-22.589844,43.125L-22.589844,30.161133L-20.392578,30.161133L-20.392578,43.125zM32.856445,36.738281C31.68347,37.102402,30.479279,37.356903,29.259277,37.498535L28.95752,37.549316C28.415888,37.614929,27.88995,37.775795,27.404297,38.024414C26.581972,38.532211,26.264872,39.571255,26.663574,40.45166C26.966633,41.072014,27.553001,41.505882,28.234863,41.614258C29.396502,41.845398,30.602369,41.624317,31.606445,40.996094C32.496826,40.428547,33.061539,39.468063,33.124512,38.414063C33.179199,37.817272,33.195839,37.21756,33.174316,36.618652L32.856445,36.738281zM51.684082,31.705566L51.34082,31.761719C50.378208,32.000572,49.577282,32.665577,49.165527,33.567871C48.830879,34.347786,48.64843,35.184284,48.62793,36.032715C48.557861,36.972691,48.641495,37.917973,48.875488,38.831055C49.138485,39.892296,49.840992,40.791378,50.807129,41.303223C51.987453,41.878696,53.403145,41.640083,54.32959,40.709473C54.822895,40.225685,55.173553,39.615578,55.343262,38.945801C55.564934,38.046856,55.644508,37.118877,55.579102,36.195313C55.555668,35.470245,55.426197,34.752506,55.194824,34.064941C54.861134,33.054962,54.093655,32.247189,53.102051,31.862305C52.646755,31.706026,52.162518,31.652493,51.684082,31.705566zM15.755859,31.706055L15.370117,31.76416C14.174947,32.02718,13.19414,32.876289,12.762695,34.021484C12.461016,34.861816,12.317182,35.750477,12.338379,36.643066C12.326174,37.37796,12.417566,38.11092,12.609863,38.820313C12.858629,39.781693,13.471334,40.609085,14.318359,41.127441C15.572331,41.852585,17.135584,41.767735,18.303711,40.911133C18.991882,40.381584,19.482397,39.636013,19.696289,38.794434C20.063946,37.371571,20.063442,35.879162,19.694824,34.456543C19.40374,33.378025,18.657082,32.479824,17.649902,31.996582C17.054621,31.736361,16.401772,31.636225,15.755859,31.706055zM2.085938,31.694336L1.744141,31.75293C1.03295,31.935345,0.402,32.347908,-0.050293,32.92627C-0.512578,33.507675,-0.822652,34.194939,-0.952637,34.92627C-1.181885,36.262928,-1.147724,37.631046,-0.852051,38.95459C-0.592538,40.016159,0.13051,40.903748,1.117676,41.372559C2.304012,41.872643,3.676681,41.586166,4.563965,40.65332C5.074711,40.141434,5.439324,39.502392,5.620117,38.802246C5.971295,37.364281,5.974811,35.863914,5.630371,34.424316C5.441726,33.61174,4.989838,32.883949,4.345215,32.354492C3.714716,31.833626,2.897694,31.594893,2.085938,31.694336zM-11.893555,31.609863L-12.229492,31.671387C-12.814725,31.830618,-13.343674,32.150223,-13.756836,32.594238C-14.278217,33.128735,-14.652167,33.789162,-14.842285,34.51123C-15.20153,35.948944,-15.207224,37.451694,-14.858887,38.89209C-14.640009,39.817131,-14.074546,40.623291,-13.279297,41.144043C-12.035712,41.917831,-10.420718,41.717175,-9.404297,40.662598C-8.889417,40.147427,-8.526106,39.500698,-8.354004,38.792969C-8.003297,37.338425,-8.00129,35.822166,-8.348145,34.366699C-8.573355,33.431499,-9.138138,32.613132,-9.932617,32.070801C-10.510399,31.688303,-11.205873,31.524826,-11.893555,31.609863zM-20.392578,27.756348L-22.589844,27.756348L-22.589844,25.229492L-20.392578,25.229492L-20.392578,27.756348zM-14.833496,1.125L-14.519531,1.145996C-12.141726,1.333305,-10.149809,3.02077,-9.574219,5.335449C-9.312638,6.353287,-9.210357,7.405428,-9.270996,8.45459L-18.938965,8.45459L-18.893555,8.973145C-18.823673,9.721609,-18.591534,10.446025,-18.213379,11.095703C-17.48489,12.303078,-16.127823,12.985981,-14.724121,12.851563C-13.584788,12.800475,-12.557694,12.147614,-12.027832,11.137695C-11.859894,10.837738,-11.717627,10.524127,-11.602539,10.200195L-9.332031,10.480957C-9.592587,11.554906,-10.163395,12.528728,-10.973145,13.280762C-11.807119,14.017086,-12.848251,14.477539,-13.954102,14.599121C-15.175519,14.776179,-16.421787,14.649389,-17.58252,14.22998C-19.217806,13.586468,-20.447279,12.20002,-20.890625,10.499512C-21.388611,8.615741,-21.314007,6.627295,-20.67627,4.786133C-19.863304,2.615424,-17.803967,1.162709,-15.486328,1.125C-15.268807,1.115883,-15.051019,1.115883,-14.833496,1.125zM3.972168,14.375L1.933594,14.375L1.933594,12.739258L1.774902,12.972656C1.045828,14.007195,-0.132112,14.633968,-1.397461,14.660645C-3.472447,14.765364,-5.416942,13.646149,-6.368652,11.799316C-6.990472,10.597203,-7.300547,9.258355,-7.270508,7.905273C-7.295388,6.558479,-7.015445,5.223367,-6.45166,4C-5.547971,2.116336,-3.584352,0.976509,-1.500488,1.125977C-0.19118,1.184134,1.019923,1.837803,1.787109,2.900391L1.787109,-3.520508L3.972168,-3.520508L3.972168,14.375zM15.171387,8.601074L15.17334,9.013672C15.158484,9.651937,15.202785,10.290312,15.305664,10.92041C15.528296,11.909967,16.360706,12.645709,17.370117,12.745117C18.587215,12.918414,19.805998,12.443856,20.585449,11.493164C20.929201,10.997057,21.139835,10.421137,21.197266,9.820313C21.261049,9.335189,21.291069,8.846217,21.287109,8.356934L21.287109,1.411133L23.484375,1.411133L23.484375,14.375L21.519043,14.375L21.519043,12.470703L21.325684,12.736816C20.413189,13.982305,18.948845,14.703626,17.405273,14.667969C16.328245,14.68501,15.27395,14.35719,14.396484,13.732422C13.93463,13.389398,13.580324,12.921394,13.375488,12.383789C13.102705,11.653193,12.969376,10.877893,12.982422,10.098145C12.976521,9.879991,12.973751,9.661583,12.974121,9.443359L12.974121,1.411133L15.171387,1.411133L15.171387,8.601074zM-33.219238,9.150391L-32.946289,9.979492C-32.746544,10.584602,-32.55291,11.190521,-32.364746,11.799316L-32.190918,11.253906C-31.937424,10.47781,-31.67778,9.702793,-31.412598,8.930664L-27.12793,-3.520508L-23.941895,-3.520508L-23.941895,14.375L-26.224609,14.375L-26.224609,-0.603027L-31.424805,14.375L-33.561035,14.375L-38.736816,-0.859375L-38.736816,14.375L-41.019531,14.375L-41.019531,-3.520508L-37.455078,-3.520508L-33.219238,9.150391zM41.053223,1.134766C41.733158,1.164708,42.394764,1.365592,42.976563,1.71875C43.635197,2.1411,44.116566,2.790108,44.32959,3.542969C44.513287,4.170517,44.600708,4.822303,44.588867,5.476074L44.588867,14.375L42.403809,14.375L42.403809,6.208496C42.433903,5.568542,42.361874,4.927843,42.19043,4.310547C41.951626,3.708727,41.434498,3.261024,40.804688,3.11084C39.736515,2.843558,38.606407,3.15517,37.826172,3.932129C37.423676,4.368737,37.154377,4.911057,37.049805,5.495605C36.961933,5.939366,36.919395,6.390895,36.922852,6.843262L36.922852,14.375L34.725586,14.375L34.725586,5.952148C34.747311,5.342737,34.644463,4.735289,34.42334,4.166992C34.183064,3.569559,33.637428,3.148831,32.998535,3.068359C31.895718,2.862919,30.767155,3.260502,30.036621,4.111816C29.674013,4.594868,29.440598,5.162354,29.358398,5.760742C29.259295,6.385136,29.21307,7.016758,29.220215,7.648926L29.220215,14.375L27.022949,14.375L27.022949,1.411133L28.988281,1.411133L28.988281,3.22998L29.146973,2.997559C30.099281,1.695432,31.664017,0.985873,33.270996,1.127441C34.074024,1.139928,34.853638,1.400368,35.50293,1.873047C36.003239,2.261528,36.378178,2.788615,36.581055,3.388672L36.776855,3.11377C37.409878,2.206205,38.342232,1.549944,39.410156,1.260254C39.947403,1.129459,40.50235,1.087076,41.053223,1.134766zM9.732422,14.375L7.535156,14.375L7.535156,1.411133L9.732422,1.411133L9.732422,14.375zM-1.940918,2.955566L-2.28418,3.011719C-3.24679,3.250576,-4.047711,3.915584,-4.459473,4.817871C-4.794123,5.597784,-4.976569,6.434284,-4.99707,7.282715C-5.066862,8.222661,-4.983408,9.167877,-4.75,10.081055C-4.486554,11.142219,-3.783953,12.041202,-2.817871,12.553223C-1.637548,13.128689,-0.221873,12.890061,0.70459,11.959473C1.197912,11.4757,1.548577,10.865585,1.718262,10.195801C1.939933,9.296852,2.019502,8.36888,1.954102,7.445313C1.93067,6.720242,1.801204,6.002503,1.569824,5.314941C1.236131,4.304964,0.46865,3.497193,-0.522949,3.112305C-0.978242,2.956024,-1.462484,2.902497,-1.940918,2.955566zM-15.501465,2.94043C-16.957954,3.065956,-18.189194,4.070163,-18.60498,5.47168C-18.722088,5.853969,-18.793224,6.248827,-18.816895,6.647949L-11.578125,6.647949C-11.617788,5.955305,-11.795245,5.277514,-12.100098,4.654297C-12.711014,3.560323,-13.87774,2.894427,-15.130371,2.924805L-15.501465,2.94043zM9.732422,-0.993652L7.535156,-0.993652L7.535156,-3.520508L9.732422,-3.520508L9.732422,-0.993652zM6.443848,-27.618652C8.285787,-27.517717,9.924177,-26.41383,10.709473,-24.744629C11.394267,-23.257345,11.661771,-21.611984,11.483398,-19.984375C11.386494,-18.657238,10.939116,-17.379475,10.187012,-16.281738C9.014515,-14.677278,7.049639,-13.855494,5.083984,-14.147461C4.051073,-14.336603,3.122234,-14.894635,2.470215,-15.717773L2.470215,-9.406738L0.272949,-9.406738L0.272949,-27.338867L2.274902,-27.338867L2.274902,-25.654297L2.45459,-25.893555C3.040117,-26.699173,3.892522,-27.271423,4.859863,-27.508301C5.379991,-27.61985,5.913279,-27.657001,6.443848,-27.618652zM-32.35498,-32.565918C-30.908033,-32.536129,-29.492729,-32.136749,-28.243652,-31.405762C-27.283504,-30.811979,-26.528614,-29.937777,-26.081055,-28.901367C-25.841679,-28.374514,-25.650631,-27.827023,-25.510254,-27.265625L-27.646484,-26.679688L-27.750488,-27.012207C-27.964628,-27.744673,-28.323238,-28.426859,-28.805176,-29.018555C-29.53964,-29.767248,-30.493309,-30.262123,-31.52832,-30.431641C-32.904564,-30.679352,-34.321724,-30.549278,-35.629883,-30.055176C-36.692215,-29.63686,-37.589584,-28.883511,-38.185547,-27.909668C-38.830368,-26.82107,-39.215317,-25.598568,-39.310547,-24.336914C-39.445625,-22.954979,-39.302521,-21.560101,-38.889648,-20.234375C-38.491688,-18.96697,-37.646664,-17.886955,-36.512207,-17.195801C-34.450581,-16.031387,-31.967077,-15.884705,-29.782715,-16.79834C-28.977518,-17.093899,-28.226801,-17.520735,-27.561035,-18.061523L-27.561035,-21.394043L-32.822266,-21.394043L-32.822266,-23.493652L-25.241699,-23.505859L-25.241699,-16.865234C-26.699675,-15.659235,-28.411009,-14.797476,-30.248047,-14.344238C-32.672333,-13.773811,-35.219776,-14.076532,-37.442871,-15.199219C-39.024776,-16.015175,-40.268002,-17.363544,-40.953125,-19.006348C-41.682163,-20.747358,-41.948418,-22.647137,-41.726074,-24.521484C-41.557453,-26.179115,-40.998791,-27.773129,-40.095703,-29.17334C-39.226494,-30.465052,-37.963135,-31.441687,-36.494141,-31.95752C-35.167721,-32.430225,-33.761314,-32.636951,-32.35498,-32.565918zM-7.84082,-27.625977C-6.969766,-27.628557,-6.106261,-27.463779,-5.297363,-27.140625C-4.410651,-26.819641,-3.727134,-26.098091,-3.45459,-25.195313C-3.312536,-24.712568,-3.241805,-24.211697,-3.244629,-23.708496C-3.233915,-23.384768,-3.228704,-23.060703,-3.229004,-22.736816L-3.229004,-19.807129C-3.248013,-18.642273,-3.21706,-17.477165,-3.13623,-16.314941C-3.077216,-15.632426,-2.871519,-14.970695,-2.533203,-14.375L-4.828125,-14.375C-5.069019,-14.877486,-5.21786,-15.4191,-5.267578,-15.974121L-5.571289,-15.724121C-6.651463,-14.803161,-7.99029,-14.238905,-9.403809,-14.108887C-10.252924,-14.023547,-11.110674,-14.102972,-11.929688,-14.342773C-13.058681,-14.67015,-13.951135,-15.537531,-14.310547,-16.656738C-14.651746,-17.76016,-14.465115,-18.959221,-13.804688,-19.906738C-13.383817,-20.483664,-12.814324,-20.935379,-12.156738,-21.213867C-11.462105,-21.502491,-10.729182,-21.688351,-9.980957,-21.765625C-9.563225,-21.823158,-9.14432,-21.87693,-8.725586,-21.926758L-8.126465,-22.012207C-7.218915,-22.129944,-6.323524,-22.327484,-5.450684,-22.602539C-5.396293,-23.179251,-5.444905,-23.761106,-5.594238,-24.320801C-5.741397,-24.795044,-6.082717,-25.185177,-6.533203,-25.394043C-7.165689,-25.697065,-7.862701,-25.840895,-8.563477,-25.812988C-9.200518,-25.83699,-9.835937,-25.733053,-10.432129,-25.507324C-10.974179,-25.260612,-11.401129,-24.815838,-11.625488,-24.26416C-11.758936,-23.968575,-11.865799,-23.661711,-11.944824,-23.347168L-14.093262,-23.640137C-13.947243,-24.447027,-13.617248,-25.209442,-13.128906,-25.868164C-12.617265,-26.476961,-11.944642,-26.929607,-11.187988,-27.174316C-10.110035,-27.531765,-8.974955,-27.684931,-7.84082,-27.625977zM37.398438,-24.299316C37.710682,-23.822174,38.011913,-23.337765,38.301758,-22.84668L38.564941,-23.238281C39.516296,-24.619026,40.486115,-25.985313,41.475586,-27.338867L44.100098,-27.338867L39.620117,-21.235352L44.441895,-14.375L41.744141,-14.375C40.611267,-16.071716,39.486633,-17.778992,38.375,-19.489746L34.969238,-14.375L32.308105,-14.375L37.044434,-21.113281L32.662109,-27.338867L35.408691,-27.338867L37.398438,-24.299316zM16.470215,-25.849609C17.175919,-26.701426,18.14854,-27.290197,19.230469,-27.520508C20.354931,-27.753891,21.523849,-27.64119,22.583008,-27.197266C23.670551,-26.750849,24.452888,-25.776064,24.65332,-24.617676C24.780973,-23.94961,24.840843,-23.270424,24.832031,-22.590332L24.832031,-14.375L22.634766,-14.375L22.634766,-22.590332C22.654629,-23.172859,22.559883,-23.753773,22.355957,-24.299805C22.040627,-25.063206,21.336887,-25.596186,20.516602,-25.692871C19.26335,-25.914528,17.988285,-25.443098,17.180664,-24.459473C16.840576,-23.976494,16.627823,-23.415638,16.562012,-22.828613C16.497171,-22.3778,16.466484,-21.922722,16.470215,-21.467285L16.470215,-14.375L14.272949,-14.375L14.272949,-32.270508L16.470215,-32.270508L16.470215,-25.849609zM-16.937988,-27.620605C-16.23205,-27.548643,-15.553432,-27.30983,-14.958008,-26.923828L-15.714844,-24.885254L-16.117676,-25.09375C-16.604105,-25.320534,-17.145077,-25.404037,-17.677246,-25.334473C-18.389385,-25.21262,-18.995159,-24.7465,-19.29541,-24.089355C-19.579235,-23.372616,-19.743355,-22.614197,-19.78125,-21.844238L-19.804199,-21.162109L-19.804199,-14.375L-22.001465,-14.375L-22.001465,-27.338867L-20.023926,-27.338867L-20.023926,-25.373535L-19.836426,-25.703613C-19.561949,-26.211348,-19.208031,-26.671921,-18.788086,-27.067871C-18.271582,-27.494778,-17.604029,-27.69421,-16.937988,-27.620605zM30.482422,-14.375L28.285156,-14.375L28.285156,-27.338867L30.482422,-27.338867L30.482422,-14.375zM-5.768555,-20.761719L-6.123535,-20.646484C-7.186463,-20.350163,-8.270311,-20.134537,-9.365723,-20.001465L-9.66748,-19.950684C-10.209111,-19.885061,-10.735041,-19.724192,-11.220703,-19.475586C-12.043063,-18.967819,-12.36016,-17.928745,-11.961426,-17.04834C-11.658384,-16.427977,-11.072001,-15.994111,-10.390137,-15.885742C-9.2285,-15.654636,-8.022645,-15.875725,-7.018555,-16.503906C-6.128175,-17.071451,-5.563472,-18.031939,-5.500488,-19.085938C-5.445796,-19.682724,-5.42916,-20.282442,-5.450684,-20.881348L-5.768555,-20.761719zM5.481445,-25.890137C4.764579,-25.789391,4.10541,-25.441151,3.618164,-24.905762C3.096793,-24.371256,2.722845,-23.710833,2.532715,-22.98877C2.17347,-21.551058,2.167774,-20.048307,2.516113,-18.60791C2.734996,-17.682873,3.300459,-16.876717,4.095703,-16.355957C5.339293,-15.58221,6.954268,-15.78286,7.970703,-16.837402C8.485591,-17.352566,8.848902,-17.999298,9.020996,-18.707031C9.37169,-20.161741,9.373696,-21.678158,9.026855,-23.133789C8.801786,-24.068909,8.236947,-24.887188,7.442383,-25.429199C6.864604,-25.811703,6.169127,-25.97518,5.481445,-25.890137zM30.482422,-29.743652L28.285156,-29.743652L28.285156,-32.270508L30.482422,-32.270508L30.482422,-29.743652z"/>
    <path transform="matrix(1,0,0,-1,692.637085,437.139496)" style="stroke:#0000ff;stroke-width:0.050000mm;fill:none" d="M3.031325,-28.841135L3.54633,-29.789656C7.444762,-29.325567,11.214196,-28.100801,14.640879,-26.184818L14.5,-25.114737L15.356278,-25.771782C18.728907,-23.762182,21.674303,-21.110136,24.025433,-17.96604L23.461493,-17.045773L24.510986,-17.297733C26.774662,-14.090098,28.38673,-10.469337,29.255772,-6.64077L28.36628,-6.029439L29.427523,-5.832749C30.19083,-1.98171,30.19083,1.98171,29.427523,5.832749L28.36628,6.029439L29.255772,6.64077C28.38673,10.469337,26.774662,14.090098,24.510986,17.297733L23.461493,17.045773L24.025433,17.96604C21.674301,21.110132,18.728905,23.762178,15.356278,25.771782L14.5,25.114737L14.640879,26.184818C11.214196,28.100801,7.444762,29.325563,3.54633,29.789656L3.031325,28.841135L2.724783,29.876003C-1.184948,30.232586,-5.126654,29.818295,-8.87681,28.656626L-8.961493,27.580639L-9.662452,28.401356C-13.379201,27.136883,-16.81163,25.155167,-19.76507,22.568607L-19.404787,21.551199L-20.378962,22.015856C-23.260071,19.348955,-25.58971,16.142485,-27.235769,12.57827L-26.492817,11.795362L-27.571762,11.823616C-29.119064,8.215431,-29.943104,4.338623,-29.997156,0.413036L-29,0L-29.997156,-0.413036C-29.943102,-4.338628,-29.119059,-8.215435,-27.571762,-11.823616L-26.492817,-11.795362L-27.235769,-12.57827C-25.589714,-16.142479,-23.260075,-19.348949,-20.378962,-22.015856L-19.404787,-21.551199L-19.76507,-22.568607C-16.811626,-25.155167,-13.379208,-27.136875,-9.662452,-28.401356L-8.961493,-27.580639L-8.87681,-28.656626C-5.126657,-29.818293,-1.184947,-30.232584,2.724783,-29.876003L3.031325,-28.841135z"/>
    <path transform="matrix(1,0,0,-1,695.763794,373.393311)" style="stroke:#0000ff;stroke-width:0.050000mm;fill:none" d="M3.031325,-28.841135L3.54633,-29.789656C7.444762,-29.325567,11.214196,-28.100801,14.640879,-26.184818L14.5,-25.114737L15.356278,-25.771782C18.728907,-23.762182,21.674303,-21.110136,24.025433,-17.96604L23.461493,-17.045773L24.510986,-17.297733C26.774662,-14.090098,28.38673,-10.469337,29.255772,-6.64077L28.36628,-6.029439L29.427523,-5.832749C30.19083,-1.98171,30.19083,1.98171,29.427523,5.832749L28.36628,6.029439L29.255772,6.64077C28.38673,10.469337,26.774662,14.090098,24.510986,17.297733L23.461493,17.045773L24.025433,17.96604C21.674301,21.110132,18.728905,23.762178,15.356278,25.771782L14.5,25.114737L14.640879,26.184818C11.214196,28.100801,7.444762,29.325563,3.54633,29.789656L3.031325,28.841135L2.724783,29.876003C-1.184948,30.232586,-5.126654,29.818295,-8.87681,28.656626L-8.961493,27.580639L-9.662452,28.401356C-13.379201,27.136883,-16.81163,25.155167,-19.76507,22.568607L-19.404787,21.551199L-20.378962,22.015856C-23.260071,19.348955,-25.58971,16.142485,-27.235769,12.57827L-26.492817,11.795362L-27.571762,11.823616C-29.119064,8.215431,-29.943104,4.338623,-29.997156,0.413036L-29,0L-29.997156,-0.413036C-29.943102,-4.338628,-29.119059,-8.215435,-27.571762,-11.823616L-26.492817,-11.795362L-27.235769,-12.57827C-25.589714,-16.142479,-23.260075,-19.348949,-20.378962,-22.015856L-19.404787,-21.551199L-19.76507,-22.568607C-16.811626,-25.155167,-13.379208,-27.136875,-9.662452,-28.401356L-8.961493,-27.580639L-8.87681,-28.656626C-5.126657,-29.818293,-1.184947,-30.232584,2.724783,-29.876003L3.031325,-28.841135z"/>
    <path transform="matrix(1,0,0,-1,675.763794,313.393311)" style="stroke:#0000ff;stroke-width:0.050000mm;fill:none" d="M3.031325,-28.841135L3.54633,-29.789656C7.444762,-29.325567,11.214196,-28.100801,14.640879,-26.184818L14.5,-25.114737L15.356278,-25.771782C18.728907,-23.762182,21.674303,-21.110136,24.025433,-17.96604L23.461493,-17.045773L24.510986,-17.297733C26.774662,-14.090098,28.38673,-10.469337,29.255772,-6.64077L28.36628,-6.029439L29.427523,-5.832749C30.19083,-1.98171,30.19083,1.98171,29.427523,5.832749L28.36628,6.029439L29.255772,6.64077C28.38673,10.469337,26.774662,14.090098,24.510986,17.297733L23.461493,17.045773L24.025433,17.96604C21.674301,21.110132,18.728905,23.762178,15.356278,25.771782L14.5,25.114737L14.640879,26.184818C11.214196,28.100801,7.444762,29.325563,3.54633,29.789656L3.031325,28.841135L2.724783,29.876003C-1.184948,30.232586,-5.126654,29.818295,-8.87681,28.656626L-8.961493,27.580639L-9.662452,28.401356C-13.379201,27.136883,-16.81163,25.155167,-19.76507,22.568607L-19.404787,21.551199L-20.378962,22.015856C-23.260071,19.348955,-25.58971,16.142485,-27.235769,12.57827L-26.492817,11.795362L-27.571762,11.823616C-29.119064,8.215431,-29.943104,4.338623,-29.997156,0.413036L-29,0L-29.997156,-0.413036C-29.943102,-4.338628,-29.119059,-8.215435,-27.571762,-11.823616L-26.492817,-11.795362L-27.235769,-12.57827C-25.589714,-16.142479,-23.260075,-19.348949,-20.378962,-22.015856L-19.404787,-21.551199L-19.76507,-22.568607C-16.811626,-25.155167,-13.379208,-27.136875,-9.662452,-28.401356L-8.961493,-27.580639L-8.87681,-28.656626C-5.126657,-29.818293,-1.184947,-30.232584,2.724783,-29.876003L3.031325,-28.841135z"/>
    <circle transform="matrix(1,0,0,-1,367.396851,547.139526)" style="stroke:#ff0000;stroke-width:0.050000mm;fill:none" r="1.05" cx="0" cy="0"/>
    <path transform="matrix(1,0,0,-1,393.896851,547.139526)" style="stroke:#0000ff;stroke-width:0.050000mm;fill:none" d="M-32.483204,-9.230453C-32.523312,-8.901159,-32.537701,-8.56925,-32.526241,-8.23772C-32.534271,-7.590297,-32.363293,-6.953268,-32.032158,-6.396877L-30.751865,-4.916466C-31.276186,-4.463023,-31.724596,-3.928628,-32.080101,-3.333535L-33.760342,-4.337306C-33.962009,-4.430713,-34.177387,-4.491192,-34.398201,-4.516427C-35.14954,-4.600744,-35.910229,-4.523354,-36.629196,-4.289454C-36.776531,-3.941527,-36.905846,-3.586239,-37.016621,-3.225008C-36.835678,-2.946978,-36.633354,-2.683466,-36.411472,-2.436866C-36.001469,-1.93575,-35.461018,-1.55766,-34.849712,-1.34429L-32.917362,-1.033184C-33.027546,-0.3488,-33.027546,0.348802,-32.917362,1.033185L-34.849712,1.34429C-34.944752,1.368697,-35.037575,1.401052,-35.127193,1.441011C-35.907909,1.852202,-36.561329,2.46916,-37.016621,3.225008C-36.905846,3.586242,-36.776531,3.94153,-36.629196,4.289454C-36.331192,4.380109,-36.027,4.449012,-35.719021,4.495618C-35.072769,4.623562,-34.403881,4.572739,-33.784382,4.348623L-33.760342,4.337306L-32.080101,3.333535C-31.724596,3.928628,-31.276184,4.463024,-30.751865,4.916466L-32.032158,6.396877C-32.089275,6.476663,-32.139584,6.561113,-32.182549,6.649332C-32.516304,7.466156,-32.620277,8.358785,-32.483204,9.230453C-32.166149,9.43597,-31.838717,9.625013,-31.502207,9.796832C-31.215647,9.674724,-30.938339,9.531979,-30.672451,9.369716C-30.095156,9.052323,-29.615423,8.58344,-29.28492,8.013549L-29.273779,7.989427L-28.631851,6.140457C-27.976997,6.367809,-27.289995,6.488947,-26.596874,6.499278L-26.626045,8.456294C-26.618515,8.554129,-26.602766,8.651158,-26.578978,8.746356C-26.309605,9.586614,-25.815485,10.337239,-25.150179,10.916867C-24.775196,10.870502,-24.402855,10.804849,-24.03463,10.720165C-23.893602,10.44243,-23.772926,10.154827,-23.673546,9.859619C-23.435328,9.245405,-23.369228,8.577854,-23.482363,7.928846L-23.489334,7.903207L-24.186083,6.074191C-23.538298,5.827422,-22.934156,5.478621,-22.396555,5.041006L-21.160955,6.558918C-21.092297,6.629019,-21.017864,6.693228,-20.93845,6.750863C-20.19199,7.221391,-19.33098,7.47879,-18.44875,7.495157C-18.191299,7.218606,-17.948269,6.928974,-17.720627,6.627413C-17.791117,6.324006,-17.883541,6.02612,-17.997169,5.736097C-18.209494,5.112458,-18.587952,4.558595,-19.091791,4.134148L-19.113611,4.118989L-20.823023,3.165743C-20.485409,2.560318,-20.246815,1.904787,-20.116283,1.223991L-18.194063,1.59255C-18.109859,1.600841,-18.025162,1.602959,-17.940649,1.598889C-17.072281,1.493463,-16.250126,1.149148,-15.565783,0.604304L-15.514591,0.56638C-15.495136,0.189044,-15.495136,-0.189044,-15.514591,-0.56638C-16.201448,-1.120159,-17.026176,-1.4763,-17.900234,-1.596566C-17.998116,-1.603465,-18.096405,-1.602121,-18.194063,-1.59255L-20.116283,-1.223991C-20.246817,-1.904789,-20.485411,-2.560318,-20.823021,-3.165741L-19.113611,-4.118989C-19.043779,-4.166764,-18.977535,-4.219583,-18.915411,-4.277025C-18.317968,-4.915963,-17.909483,-5.708193,-17.735464,-6.565456L-17.720627,-6.627413C-17.948269,-6.928973,-18.191303,-7.21861,-18.44875,-7.495157C-18.779999,-7.477473,-19.109375,-7.434008,-19.433876,-7.365154C-20.072859,-7.260639,-20.670521,-6.981639,-21.160955,-6.558918L-22.396555,-5.041006C-22.934156,-5.47862,-23.5383,-5.827422,-24.186083,-6.07419L-23.489334,-7.903207C-23.466547,-7.984692,-23.449755,-8.067736,-23.439087,-8.151671C-23.39212,-9.025154,-23.588436,-9.894608,-24.00617,-10.663166L-24.034628,-10.720165C-24.402855,-10.804849,-24.775196,-10.870502,-25.150179,-10.916866C-25.392567,-10.690395,-25.616938,-10.445383,-25.821264,-10.184053C-26.243572,-9.693261,-26.52207,-9.095366,-26.626045,-8.456294L-26.596874,-6.499278C-27.289993,-6.488947,-27.976999,-6.367809,-28.631851,-6.140457L-29.273779,-7.989427C-29.308701,-8.066494,-29.349215,-8.140904,-29.394997,-8.21206C-29.920483,-8.911375,-30.629745,-9.451227,-31.443766,-9.771462L-31.502205,-9.796833C-31.838711,-9.625015,-32.166149,-9.435968,-32.483204,-9.230453z"/>
    <path transform="translate(267.714844,543.08667)" style="stroke:#000000;stroke-width:0.050000mm;fill:none" d="M11.84375,8.918457C12.204281,9.904063,12.517937,10.906135,12.783691,11.921387L12.981934,11.168945C13.187828,10.426061,13.42305,9.69156,13.687012,8.967285L16.458008,1.411133L18.655273,1.411133L13.530762,15.10791C13.207521,16.035574,12.8099,16.93565,12.341797,17.799316C12.013872,18.395382,11.535389,18.895081,10.954102,19.248535C10.136844,19.67174,9.186032,19.756788,8.306641,19.485352L7.925293,19.367676L7.681152,17.304688L8.029785,17.390137C8.635427,17.546267,9.271814,17.536825,9.872559,17.362793C10.405805,17.153008,10.824144,16.725605,11.022461,16.187988C11.262678,15.597643,11.487669,15.001301,11.697266,14.399414L6.777832,1.411133L9.145996,1.411133L11.84375,8.918457zM-5.306152,1.131348L-4.909668,1.171387C-3.222186,1.397008,-1.764688,2.464564,-1.040527,4.005371C-0.355749,5.492659,-0.088247,7.138015,-0.266602,8.765625C-0.363531,10.092757,-0.810906,11.370514,-1.562988,12.468262C-2.735481,14.072731,-4.700358,14.894516,-6.666016,14.602539C-7.699013,14.41363,-8.627934,13.855549,-9.279785,13.032227L-9.279785,19.343262L-11.477051,19.343262L-11.477051,1.411133L-9.475098,1.411133L-9.475098,3.095703L-9.29541,2.856445C-8.70986,2.050854,-7.857462,1.47861,-6.890137,1.241699C-6.370009,1.13015,-5.836719,1.092998,-5.306152,1.131348zM-68.609375,-3.583984L-68.254395,-3.554688C-66.900551,-3.428018,-65.646927,-2.787488,-64.750977,-1.764648C-63.774384,-0.600931,-63.481052,0.990338,-63.978516,2.425781C-64.33506,3.344831,-65.022377,4.097641,-65.905273,4.536133L-66.201172,4.682617L-65.81543,4.786621C-64.233253,5.248088,-63.085964,6.619936,-62.911621,8.258789C-62.764854,9.272649,-62.89336,10.307249,-63.283691,11.254395C-64.081711,13.027712,-65.717354,14.281044,-67.637207,14.590332C-68.775436,14.793467,-69.946388,14.707848,-71.042969,14.341309C-72.859032,13.685154,-74.180313,12.100689,-74.499512,10.196289L-74.575195,9.650879L-72.37793,9.35791L-72.274902,9.808594C-72.115791,10.547894,-71.784927,11.239398,-71.309082,11.827148C-70.689041,12.514314,-69.799782,12.896523,-68.874512,12.873535C-67.885277,12.883764,-66.935028,12.49078,-66.240112,11.786659C-65.545197,11.082539,-65.164757,10.127201,-65.187988,9.138184C-65.126938,7.328586,-66.511833,5.79615,-68.318359,5.674316C-68.967911,5.639749,-69.618423,5.717203,-70.241699,5.90332L-69.997559,3.974609L-69.799316,3.993164C-68.738716,4.047875,-67.693726,3.72085,-66.853516,3.071289C-66.356552,2.642861,-66.052925,2.032259,-66.01123,1.377441C-65.903297,0.602285,-66.123871,-0.182985,-66.619629,-0.788574C-67.195488,-1.454693,-68.043518,-1.822268,-68.92334,-1.787109C-70.152748,-1.826789,-71.280792,-1.106261,-71.761719,0.025879C-71.957932,0.475347,-72.091347,0.949694,-72.158203,1.435547L-74.355469,1.044922C-74.198196,0.042502,-73.792091,-0.90453,-73.174316,-1.709473C-72.381126,-2.694479,-71.242943,-3.341081,-69.990723,-3.518066C-69.533684,-3.586685,-69.070869,-3.608771,-68.609375,-3.583984zM76.972168,14.375L74.933594,14.375L74.933594,12.739258L74.774902,12.972656C74.045822,14.007187,72.867889,14.633965,71.602539,14.660645C69.527557,14.765347,67.583069,13.646135,66.631348,11.799316C66.009567,10.597193,65.699493,9.258348,65.729492,7.905273C65.704613,6.558475,65.98455,5.223367,66.54834,4C67.452026,2.116336,69.415649,0.976507,71.499512,1.125977C72.808823,1.184134,74.01992,1.837803,74.787109,2.900391L74.787109,-3.520508L76.972168,-3.520508L76.972168,14.375zM58.114746,1.125C60.2869,1.149512,62.256096,2.409565,63.188477,4.371582C63.652836,5.421875,63.879112,6.56194,63.851074,7.709961C63.876968,8.776579,63.734428,9.840608,63.428711,10.862793C62.910656,12.416093,61.716518,13.651351,60.181641,14.22168C58.429565,14.898375,56.475521,14.813093,54.789063,13.986328C53.415321,13.255117,52.412437,11.979259,52.026367,10.47168C51.571907,8.706714,51.5933,6.853608,52.088379,5.099609C52.589558,3.400279,53.885384,2.049634,55.5625,1.478516C56.383408,1.200899,57.249287,1.080965,58.114746,1.125zM44.114746,1.125C46.2869,1.149512,48.256096,2.409564,49.188477,4.371582C49.652836,5.421877,49.879112,6.561941,49.851074,7.709961C49.876972,8.776576,49.734428,9.840611,49.428711,10.862793C48.910652,12.416092,47.716515,13.65135,46.181641,14.22168C44.429565,14.898375,42.475521,14.813093,40.789063,13.986328C39.415321,13.255112,38.412434,11.979258,38.026367,10.47168C37.571907,8.706715,37.5933,6.853613,38.088379,5.099609C38.589558,3.400278,39.885384,2.049633,41.5625,1.478516C42.383408,1.200898,43.24929,1.080963,44.114746,1.125zM23.281738,8.894043L24.050781,11.677246L24.243164,10.905273L24.722168,9.003906L26.785156,1.411133L29.043457,1.411133L30.984375,8.930664L31.631348,11.408691C32.595215,8.173584,33.641113,4.647705,34.597656,1.411133L36.733887,1.411133L32.681152,14.375L30.398438,14.375L28.335449,6.611328L27.834961,4.401855L25.210449,14.375L22.915527,14.375L18.948242,1.411133L21.21875,1.411133L23.281738,8.894043zM-45.946777,1.134766L-45.506348,1.185059C-44.728493,1.281666,-44.004665,1.633962,-43.44873,2.186523C-42.990837,2.687033,-42.682068,3.30541,-42.557129,3.972168C-42.456078,4.467006,-42.407146,4.971039,-42.411133,5.476074L-42.411133,14.375L-44.596191,14.375L-44.596191,6.208496C-44.565819,5.568502,-44.638023,4.927737,-44.810059,4.310547C-45.001648,3.816444,-45.38765,3.422851,-45.87793,3.22168C-47.130615,2.74311,-48.548306,3.12891,-49.385742,4.17627C-49.741703,4.690909,-49.960167,5.28781,-50.020508,5.910645C-50.059578,6.219958,-50.078499,6.531493,-50.077148,6.843262L-50.077148,14.375L-52.274414,14.375L-52.274414,5.952148C-52.252689,5.342737,-52.355537,4.735289,-52.57666,4.166992C-52.817196,3.569535,-53.362946,3.148863,-54.001953,3.068359C-55.104622,2.863005,-56.232994,3.260587,-56.963379,4.111816C-57.325985,4.594872,-57.559399,5.162355,-57.641602,5.760742C-57.740704,6.385135,-57.786926,7.016756,-57.779785,7.648926L-57.779785,14.375L-59.977051,14.375L-59.977051,1.411133L-58.011719,1.411133L-58.011719,3.22998L-57.853027,2.997559C-56.900719,1.695431,-55.335983,0.985873,-53.729004,1.127441C-52.925983,1.139956,-52.146374,1.400395,-51.49707,1.873047C-50.996761,2.261529,-50.621822,2.788616,-50.418945,3.388672L-50.223145,3.11377C-49.590122,2.206205,-48.657768,1.549944,-47.589844,1.260254C-47.052601,1.12946,-46.497654,1.087076,-45.946777,1.134766zM-25.196777,1.134766L-24.756348,1.185059C-23.978495,1.281665,-23.254667,1.633961,-22.69873,2.186523C-22.240833,2.687031,-21.932066,3.305409,-21.807129,3.972168C-21.706076,4.467008,-21.657145,4.971041,-21.661133,5.476074L-21.661133,14.375L-23.846191,14.375L-23.846191,6.208496C-23.815821,5.568502,-23.888023,4.927733,-24.060059,4.310547C-24.251646,3.816443,-24.63765,3.42285,-25.12793,3.22168C-26.380617,2.74311,-27.798307,3.128909,-28.635742,4.17627C-28.991703,4.690909,-29.210165,5.287809,-29.270508,5.910645C-29.309582,6.219962,-29.328503,6.531488,-29.327148,6.843262L-29.327148,14.375L-31.524414,14.375L-31.524414,5.952148C-31.502689,5.342737,-31.605536,4.735289,-31.82666,4.166992C-32.067196,3.569534,-32.612946,3.148863,-33.251953,3.068359C-34.354622,2.863006,-35.482994,3.260588,-36.213379,4.111816C-36.575989,4.594868,-36.809402,5.162354,-36.891602,5.760742C-36.990704,6.385131,-37.03693,7.016758,-37.029785,7.648926L-37.029785,14.375L-39.227051,14.375L-39.227051,1.411133L-37.261719,1.411133L-37.261719,3.22998L-37.103027,2.997559C-36.150719,1.695433,-34.585983,0.985873,-32.979004,1.127441C-32.175983,1.139956,-31.396376,1.400394,-30.74707,1.873047C-30.246761,2.26153,-29.871822,2.788616,-29.668945,3.388672L-29.473145,3.11377C-28.840122,2.206205,-27.907768,1.549944,-26.839844,1.260254C-26.302597,1.129459,-25.74765,1.087076,-25.196777,1.134766zM4.671387,14.375L2.474121,14.375L2.474121,-3.520508L4.671387,-3.520508L4.671387,14.375zM43.380859,2.956055L42.995117,3.01416C41.799957,3.277197,40.819157,4.126305,40.387695,5.271484C40.086018,6.111814,39.942184,7.000474,39.963379,7.893066C39.951172,8.627962,40.042564,9.360916,40.234863,10.070313C40.483627,11.031694,41.096333,11.859084,41.943359,12.377441C43.197334,13.102572,44.760586,13.017725,45.928711,12.161133C46.616882,11.63158,47.107391,10.886011,47.321289,10.044434C47.688946,8.62157,47.688442,7.129158,47.319824,5.706543C47.028744,4.628022,46.282085,3.72982,45.274902,3.246582C44.679619,2.986365,44.026772,2.886224,43.380859,2.956055zM57.380859,2.956055L56.995117,3.01416C55.799957,3.277197,54.81916,4.126306,54.387695,5.271484C54.086014,6.111814,53.942181,7.000476,53.963379,7.893066C53.951172,8.627962,54.042564,9.360918,54.234863,10.070313C54.483627,11.031696,55.096336,11.859086,55.943359,12.377441C57.197334,13.102571,58.760586,13.017725,59.928711,12.161133C60.616879,11.631579,61.107388,10.886009,61.321289,10.044434C61.688946,8.621571,61.688442,7.129158,61.319824,5.706543C61.028748,4.628021,60.282085,3.729818,59.274902,3.246582C58.679619,2.986365,58.026772,2.886224,57.380859,2.956055zM71.059082,2.955566L70.71582,3.011719C69.753235,3.250617,68.952324,3.915613,68.540527,4.817871C68.205879,5.597783,68.02343,6.434281,68.00293,7.282715C67.932861,8.222692,68.016487,9.167979,68.250488,10.081055C68.513496,11.142295,69.215996,12.041376,70.182129,12.553223C71.36245,13.128688,72.778122,12.890055,73.70459,11.959473C74.197914,11.4757,74.548576,10.865585,74.718262,10.195801C74.939934,9.296853,75.019501,8.368878,74.954102,7.445313C74.930672,6.720246,74.801201,6.002505,74.569824,5.314941C74.23613,4.304965,73.468651,3.497195,72.477051,3.112305C72.021759,2.956024,71.537514,2.9025,71.059082,2.955566zM-6.268555,2.859863L-6.604492,2.921387C-7.189724,3.08062,-7.718675,3.400223,-8.131836,3.844238C-8.653217,4.378736,-9.027166,5.039162,-9.217285,5.76123C-9.57653,7.198942,-9.582226,8.701693,-9.233887,10.14209C-9.015003,11.067129,-8.449542,11.873283,-7.654297,12.394043C-6.410711,13.167827,-4.795718,12.967175,-3.779297,11.912598C-3.264417,11.397428,-2.901107,10.750698,-2.729004,10.042969C-2.378298,8.588428,-2.376291,7.072167,-2.723145,5.616699C-2.948357,4.6815,-3.513137,3.863133,-4.307617,3.320801C-4.885396,2.938299,-5.580873,2.774821,-6.268555,2.859863z"/>
    <path transform="matrix(1,0,0,-1,375.396851,577.139526)" style="stroke:#ff0000;stroke-width:0.050000mm;fill:none" d="M-8.70937,1.321664C-9.420221,0.940132,-9.701967,0.064678,-9.347075,-0.659841C-8.992182,-1.38436,-8.127785,-1.698396,-7.390597,-1.370631C-6.653409,-1.042865,-6.307515,-0.190716,-6.607701,0.558125L-8.70937,1.321664z"/>
    <path transform="matrix(1,0,0,-1,375.396851,577.139526)" style="stroke:#0000ff;stroke-width:0.050000mm;fill:none" d="M-12.251865,4.916466C-12.776185,4.463024,-13.224596,3.928628,-13.580103,3.333535L-15.260343,4.337306L-15.284382,4.348623C-15.903882,4.572738,-16.572771,4.623561,-17.219021,4.495618C-17.527002,4.449013,-17.83119,4.380112,-18.129194,4.289454C-18.276531,3.94153,-18.405846,3.586242,-18.516621,3.225008C-18.061331,2.469157,-17.407911,1.852199,-16.627193,1.441011C-16.537573,1.401051,-16.444754,1.368696,-16.349712,1.34429L-14.417361,1.033185C-14.527546,0.348802,-14.527546,-0.3488,-14.417362,-1.033184L-16.349712,-1.34429C-16.947237,-1.550878,-17.47681,-1.917164,-17.880928,-2.403377C-18.114864,-2.659475,-18.327469,-2.934264,-18.516621,-3.225008C-18.405846,-3.586239,-18.276531,-3.941527,-18.129196,-4.289454C-17.294569,-4.575813,-16.397448,-4.62842,-15.535078,-4.441575C-15.440739,-4.41458,-15.348838,-4.379699,-15.260343,-4.337306L-13.580103,-3.333535C-13.224596,-3.928628,-12.776186,-4.463023,-12.251865,-4.916466L-13.532157,-6.396877C-13.863294,-6.953268,-14.034272,-7.590298,-14.026241,-8.23772C-14.0377,-8.569248,-14.023311,-8.901164,-13.983204,-9.230453C-13.66615,-9.435968,-13.338712,-9.625015,-13.002205,-9.796834C-12.549446,-9.606176,-12.121685,-9.360912,-11.728422,-9.066488C-11.328813,-8.788824,-11.001451,-8.419483,-10.773779,-7.989427L-10.131851,-6.140457C-9.476999,-6.367809,-8.789992,-6.488947,-8.096875,-6.499278"/>
    <path transform="matrix(1,0,0,-1,375.396851,577.139526)" style="stroke:#0000ff;stroke-width:0.050000mm;fill:none" d="M-8.096875,-6.499278L-8.126045,-8.456294C-8.02207,-9.095366,-7.743573,-9.693261,-7.321264,-10.184053C-7.116938,-10.445385,-6.892566,-10.690395,-6.650179,-10.916867C-6.275196,-10.870502,-5.902855,-10.804849,-5.534628,-10.720165L-5.506169,-10.663166C-5.088439,-9.894607,-4.892121,-9.025152,-4.939086,-8.151671C-4.949753,-8.067736,-4.966547,-7.984693,-4.989333,-7.903207L-5.686083,-6.074191C-5.0383,-5.827422,-4.434155,-5.47862,-3.896556,-5.041007"/>
    <path transform="matrix(1,0,0,-1,375.396851,577.139526)" style="stroke:#0000ff;stroke-width:0.050000mm;fill:none" d="M-3.896555,-5.041006L-2.660955,-6.558918C-2.170517,-6.98164,-1.572856,-7.26064,-0.933875,-7.365154C-0.609373,-7.434009,-0.280002,-7.477474,0.05125,-7.495157C0.308696,-7.21861,0.55173,-6.928973,0.779375,-6.627411L0.764536,-6.565456C0.590518,-5.708195,0.182033,-4.915963,-0.415411,-4.277025C-0.477535,-4.219582,-0.543778,-4.166763,-0.613612,-4.118989L-2.323023,-3.165743"/>
    <path transform="matrix(1,0,0,-1,375.396851,577.139526)" style="stroke:#0000ff;stroke-width:0.050000mm;fill:none" d="M-2.323021,-3.165741C-1.98541,-2.560318,-1.746817,-1.904789,-1.616283,-1.223991L0.305937,-1.59255C0.953353,-1.601127,1.590526,-1.430685,2.147196,-1.100018C2.440035,-0.94418,2.720291,-0.765758,2.985409,-0.56638C3.004864,-0.189044,3.004864,0.189044,2.985409,0.56638C2.299061,1.120927,1.474035,1.477196,0.599765,1.596566C0.501882,1.603465,0.403595,1.602121,0.305937,1.59255L-1.616283,1.223991C-1.746816,1.904787,-1.98541,2.560318,-2.323023,3.165743L-0.613612,4.118989L-0.591791,4.134148C-0.087951,4.558594,0.290507,5.112458,0.50283,5.736097C0.61646,6.026124,0.708882,6.324005,0.779374,6.627413C0.55173,6.928974,0.3087,7.218606,0.05125,7.495157C-0.830981,7.478788,-1.691993,7.221389,-2.438451,6.750863C-2.517867,6.69323,-2.592297,6.629023,-2.660955,6.558918L-3.896555,5.041006C-4.434156,5.478621,-5.038298,5.827422,-5.686083,6.074191L-4.989333,7.903207L-4.982362,7.928846C-4.869226,8.577854,-4.935328,9.245405,-5.173546,9.859619C-5.272923,10.154825,-5.393601,10.442432,-5.534628,10.720165C-5.902855,10.804849,-6.275196,10.870502,-6.650177,10.916866"/>
    <path transform="matrix(1,0,0,-1,375.396851,577.139526)" style="stroke:#0000ff;stroke-width:0.050000mm;fill:none" d="M-10.131851,6.140457C-9.476998,6.367809,-8.789995,6.488947,-8.096875,6.499278L-8.126045,8.456294C-8.118513,8.554129,-8.102768,8.651159,-8.078978,8.746356C-7.809604,9.586615,-7.315483,10.337241,-6.650179,10.916867"/>
    <path transform="matrix(1,0,0,-1,375.396851,577.139526)" style="stroke:#0000ff;stroke-width:0.050000mm;fill:none" d="M-12.251866,4.916466L-13.532157,6.396877C-13.589273,6.476665,-13.639581,6.561114,-13.682549,6.649332C-14.016306,7.466155,-14.120281,8.358785,-13.983204,9.230453C-13.666147,9.43597,-13.338717,9.625013,-13.002207,9.796832C-12.715648,9.674726,-12.438337,9.53198,-12.172452,9.369716C-11.595156,9.052324,-11.115425,8.583439,-10.78492,8.013549L-10.773779,7.989427L-10.131851,6.140457"/>
</svg>
