<?xml version="1.0" encoding="UTF-8" standalone="no"?>
<svg xmlns="http://www.w3.org/2000/svg" xmlns:xlink="http://www.w3.org/1999/xlink" width="140.000mm" height="90.000mm" viewBox="0.000000 0.000000 140.000000 90.000000">
    <path transform="matrix(-0,-1,-1,0,50.139603,66.555298)" style="stroke:#0000ff;stroke-width:0.050000mm;fill:none" d="M-2.95,-5.075L-4.075,-5.075L-4.075,5.075L-2.95,5.075L-2.95,8.075L2.95,8.075L2.95,5.075L4.075,5.075L4.075,-5.075L2.95,-5.075L2.95,-8.075L-2.95,-8.075L-2.95,-5.075z"/>
    <path transform="matrix(1,0,0,-1,48.014603,79.925003)" style="stroke:#0000ff;stroke-width:0.050000mm;fill:none" d="M-2.95,-5.075L-4.075,-5.075L-4.075,5.075L-2.95,5.075L-2.95,8.075L2.95,8.075L2.95,5.075L4.075,5.075L4.075,-5.075L2.95,-5.075L2.95,-8.075L-2.95,-8.075L-2.95,-5.075z"/>
    <path transform="matrix(1,0,0,-1,57.014603,79.925003)" style="stroke:#0000ff;stroke-width:0.050000mm;fill:none" d="M-2.95,-5.075L-4.075,-5.075L-4.075,5.075L-2.95,5.075L-2.95,8.075L2.95,8.075L2.95,5.075L4.075,5.075L4.075,-5.075L2.95,-5.075L2.95,-8.075L-2.95,-8.075L-2.95,-5.075z"/>
    <path transform="matrix(1,0,0,-1,66.014603,79.925003)" style="stroke:#0000ff;stroke-width:0.050000mm;fill:none" d="M-2.95,-5.075L-4.075,-5.075L-4.075,5.075L-2.95,5.075L-2.95,8.075L2.95,8.075L2.95,5.075L4.075,5.075L4.075,-5.075L2.95,-5.075L2.95,-8.075L-2.95,-8.075L-2.95,-5.075z"/>
    <path transform="matrix(1,0,0,-1,75.014603,79.925003)" style="stroke:#0000ff;stroke-width:0.050000mm;fill:none" d="M-2.95,-5.075L-4.075,-5.075L-4.075,5.075L-2.95,5.075L-2.95,8.075L2.95,8.075L2.95,5.075L4.075,5.075L4.075,-5.075L2.95,-5.075L2.95,-8.075L-2.95,-8.075L-2.95,-5.075z"/>
    <path transform="matrix(-0,-1,-1,0,8.989594,84.074997)" style="stroke:#0000ff;stroke-width:0.050000mm;fill:none" d="M-2.95,-5.075L-4.075,-5.075L-4.075,5.075L-2.95,5.075L-2.95,8.075L2.95,8.075L2.95,5.075L4.075,5.075L4.075,-5.075L2.95,-5.075L2.95,-8.075L-2.95,-8.075L-2.95,-5.075z"/>
    <path transform="matrix(1,0,0,-1,135.408997,10.1674)" style="stroke:#0000ff;stroke-width:0.050000mm;fill:none" d="M-2.95,-5.075L-4.075,-5.075L-4.075,5.075L-2.95,5.075L-2.95,8.075L2.95,8.075L2.95,5.075L4.075,5.075L4.075,-5.075L2.95,-5.075L2.95,-8.075L-2.95,-8.075L-2.95,-5.075z"/>
    <path transform="matrix(1,0,0,-1,108.990005,10.1532)" style="stroke:#0000ff;stroke-width:0.050000mm;fill:none" d="M-2.95,-5.075L-4.075,-5.075L-4.075,5.075L-2.95,5.075L-2.95,8.075L2.95,8.075L2.95,5.075L4.075,5.075L4.075,-5.075L2.95,-5.075L2.95,-8.075L-2.95,-8.075L-2.95,-5.075z"/>
    <path transform="matrix(1,0,0,-1,117.990005,10.1532)" style="stroke:#0000ff;stroke-width:0.050000mm;fill:none" d="M-2.95,-5.075L-4.075,-5.075L-4.075,5.075L-2.95,5.075L-2.95,8.075L2.95,8.075L2.95,5.075L4.075,5.075L4.075,-5.075L2.95,-5.075L2.95,-8.075L-2.95,-8.075L-2.95,-5.075z"/>
    <path transform="matrix(1,0,0,-1,126.990005,10.1532)" style="stroke:#0000ff;stroke-width:0.050000mm;fill:none" d="M-2.95,-5.075L-4.075,-5.075L-4.075,5.075L-2.95,5.075L-2.95,8.075L2.95,8.075L2.95,5.075L4.075,5.075L4.075,-5.075L2.95,-5.075L2.95,-8.075L-2.95,-8.075L-2.95,-5.075z"/>
    <path transform="matrix(1,0,0,-1,63.989601,10)" style="stroke:#0000ff;stroke-width:0.050000mm;fill:none" d="M-2.95,-5.075L-4.075,-5.075L-4.075,5.075L-2.95,5.075L-2.95,8.075L2.95,8.075L2.95,5.075L4.075,5.075L4.075,-5.075L2.95,-5.075L2.95,-8.075L-2.95,-8.075L-2.95,-5.075z"/>
    <path transform="matrix(1,0,0,-1,72.989601,10)" style="stroke:#0000ff;stroke-width:0.050000mm;fill:none" d="M-2.95,-5.075L-4.075,-5.075L-4.075,5.075L-2.95,5.075L-2.95,8.075L2.95,8.075L2.95,5.075L4.075,5.075L4.075,-5.075L2.95,-5.075L2.95,-8.075L-2.95,-8.075L-2.95,-5.075z"/>
    <path transform="matrix(1,0,0,-1,81.989601,10)" style="stroke:#0000ff;stroke-width:0.050000mm;fill:none" d="M-2.95,-5.075L-4.075,-5.075L-4.075,5.075L-2.95,5.075L-2.95,8.075L2.95,8.075L2.95,5.075L4.075,5.075L4.075,-5.075L2.95,-5.075L2.95,-8.075L-2.95,-8.075L-2.95,-5.075z"/>
    <path transform="matrix(1,0,0,-1,90.989601,10)" style="stroke:#0000ff;stroke-width:0.050000mm;fill:none" d="M-2.95,-5.075L-4.075,-5.075L-4.075,5.075L-2.95,5.075L-2.95,8.075L2.95,8.075L2.95,5.075L4.075,5.075L4.075,-5.075L2.95,-5.075L2.95,-8.075L-2.95,-8.075L-2.95,-5.075z"/>
    <path transform="matrix(1,0,0,-1,99.990005,10)" style="stroke:#0000ff;stroke-width:0.050000mm;fill:none" d="M-2.95,-5.075L-4.075,-5.075L-4.075,5.075L-2.95,5.075L-2.95,8.075L2.95,8.075L2.95,5.075L4.075,5.075L4.075,-5.075L2.95,-5.075L2.95,-8.075L-2.95,-8.075L-2.95,-5.075z"/>
    <circle transform="matrix(1,0,0,-1,32.375099,32.120327)" style="stroke:#0000ff;stroke-width:0.050000mm;fill:none" r="31.075001" cx="0" cy="0"/>
    <path transform="matrix(1,0,0,-1,32.375099,32.120327)" style="stroke:#ff0000;stroke-width:0.050000mm;fill:none" d="M7.494077,-22.142649L9.828446,-27.778313L12.692472,-26.591995L10.358104,-20.956329L7.494077,-22.142649z"/>
    <path transform="matrix(1,0,0,-1,32.375099,32.120327)" style="stroke:#ff0000;stroke-width:0.050000mm;fill:none" d="M21.902632,-19.7106L17.589281,-15.397249L15.397249,-17.589281L19.7106,-21.902632L21.902632,-19.7106z"/>
    <path transform="matrix(1,0,0,-1,32.375099,32.120327)" style="stroke:#ff0000;stroke-width:0.050000mm;fill:none" d="M20.956329,-10.358104L22.142649,-7.494077L27.778313,-9.828446L26.591995,-12.692472L20.956329,-10.358104z"/>
    <path transform="matrix(1,0,0,-1,32.375099,32.120327)" style="stroke:#ff0000;stroke-width:0.050000mm;fill:none" d="M23.324999,1.55L23.324999,-1.55L29.424999,-1.55L29.424999,1.55L23.324999,1.55z"/>
    <path transform="matrix(1,0,0,-1,32.375099,32.120327)" style="stroke:#ff0000;stroke-width:0.050000mm;fill:none" d="M26.591995,12.692472L27.778313,9.828446L22.142649,7.494077L20.956329,10.358104L26.591995,12.692472z"/>
    <path transform="matrix(1,0,0,-1,32.375099,32.120327)" style="stroke:#ff0000;stroke-width:0.050000mm;fill:none" d="M17.589281,15.397249L21.902632,19.7106L19.7106,21.902632L15.397249,17.589281L17.589281,15.397249z"/>
    <path transform="matrix(1,0,0,-1,32.375099,32.120327)" style="stroke:#ff0000;stroke-width:0.050000mm;fill:none" d="M10.358104,20.956329L7.494077,22.142649L9.828446,27.778313L12.692472,26.591995L10.358104,20.956329z"/>
    <path transform="matrix(1,0,0,-1,32.375099,32.120327)" style="stroke:#ff0000;stroke-width:0.050000mm;fill:none" d="M1.55,23.324999L1.55,29.424999L-1.55,29.424999L-1.55,23.324999L1.55,23.324999z"/>
    <path transform="matrix(1,0,0,-1,32.375099,32.120327)" style="stroke:#ff0000;stroke-width:0.050000mm;fill:none" d="M-7.494077,22.142649L-9.828446,27.778313L-12.692472,26.591995L-10.358104,20.956329L-7.494077,22.142649z"/>
    <path transform="matrix(1,0,0,-1,32.375099,32.120327)" style="stroke:#ff0000;stroke-width:0.050000mm;fill:none" d="M-19.7106,21.902632L-21.902632,19.7106L-17.589281,15.397249L-15.397249,17.589281L-19.7106,21.902632z"/>
    <path transform="matrix(1,0,0,-1,32.375099,32.120327)" style="stroke:#ff0000;stroke-width:0.050000mm;fill:none" d="M-20.956329,10.358104L-22.142649,7.494077L-27.778313,9.828446L-26.591995,12.692472L-20.956329,10.358104z"/>
    <path transform="matrix(1,0,0,-1,32.375099,32.120327)" style="stroke:#ff0000;stroke-width:0.050000mm;fill:none" d="M-23.324999,1.55L-29.424999,1.55L-29.424999,-1.55L-23.324999,-1.55L-23.324999,1.55z"/>
    <path transform="matrix(1,0,0,-1,32.375099,32.120327)" style="stroke:#ff0000;stroke-width:0.050000mm;fill:none" d="M-22.142649,-7.494077L-27.778313,-9.828446L-26.591995,-12.692472L-20.956329,-10.358104L-22.142649,-7.494077z"/>
    <path transform="matrix(1,0,0,-1,32.375099,32.120327)" style="stroke:#ff0000;stroke-width:0.050000mm;fill:none" d="M-17.589281,-15.397249L-21.902632,-19.7106L-19.7106,-21.902632L-15.397249,-17.589281L-17.589281,-15.397249z"/>
    <path transform="matrix(1,0,0,-1,32.375099,32.120327)" style="stroke:#ff0000;stroke-width:0.050000mm;fill:none" d="M-10.358104,-20.956329L-7.494077,-22.142649L-9.828446,-27.778313L-12.692472,-26.591995L-10.358104,-20.956329z"/>
    <path transform="matrix(1,0,0,-1,32.375099,32.120327)" style="stroke:#ff0000;stroke-width:0.050000mm;fill:none" d="M0.98995,1.025C1.40777,0.621467,1.538836,0.004715,1.321221,-0.533854C1.103606,-1.072423,0.580873,-1.425,-0,-1.425C-0.580873,-1.425,-1.103606,-1.072423,-1.321221,-0.533854C-1.538836,0.004715,-1.40777,0.621467,-0.98995,1.025L0.98995,1.025z"/>
    <path transform="matrix(1,0,0,-1,32.375099,32.120327)" style="stroke:#ff0000;stroke-width:0.050000mm;fill:none" d="M-1.55,-29.424999L1.55,-29.424999L1.55,-23.324999L-1.55,-23.324999L-1.55,-29.424999z"/>
    <path transform="matrix(1,0,0,-1,32.375099,32.120327)" style="stroke:#ff0000;stroke-width:0.050000mm;fill:none" d="M21.828991,2.049588L6.771619,2.049588C6.456383,3.091091,5.905155,4.045846,5.160804,4.8396L12.68949,17.879665C17.895212,14.185079,21.232244,8.405169,21.828991,2.049588z"/>
    <path transform="matrix(1,0,0,-1,32.375099,32.120327)" style="stroke:#ff0000;stroke-width:0.050000mm;fill:none" d="M12.68949,-17.879665L5.160804,-4.8396C5.905156,-4.045846,6.456382,-3.091094,6.771618,-2.049588L21.828991,-2.049588C21.232241,-8.405174,17.895208,-14.18508,12.68949,-17.879665z"/>
    <path transform="matrix(1,0,0,-1,32.375099,32.120327)" style="stroke:#ff0000;stroke-width:0.050000mm;fill:none" d="M-1.610816,-6.889187C-0.551226,-7.136938,0.551226,-7.136938,1.610814,-6.889187L9.1395,-19.929255C3.337034,-22.590248,-3.337034,-22.590248,-9.139499,-19.929255L-1.610816,-6.889187z"/>
    <path transform="matrix(1,0,0,-1,32.375099,32.120327)" style="stroke:#ff0000;stroke-width:0.050000mm;fill:none" d="M-21.828991,-2.049588L-6.771619,-2.049588C-6.456382,-3.091093,-5.905156,-4.045845,-5.160804,-4.8396L-12.68949,-17.879665C-17.89521,-14.185081,-21.232246,-8.405167,-21.828991,-2.049588z"/>
    <path transform="matrix(1,0,0,-1,32.375099,32.120327)" style="stroke:#ff0000;stroke-width:0.050000mm;fill:none" d="M-21.828991,2.049584C-21.232246,8.405169,-17.89521,14.185081,-12.689489,17.879665L-5.160804,4.8396C-5.905156,4.045846,-6.456382,3.091093,-6.771618,2.049588L-21.828991,2.049584z"/>
    <path transform="matrix(1,0,0,-1,32.375099,32.120327)" style="stroke:#ff0000;stroke-width:0.050000mm;fill:none" d="M9.1395,19.929255L1.610814,6.889188C0.551229,7.136938,-0.551228,7.136938,-1.610814,6.889187L-9.1395,19.929255C-3.337031,22.590248,3.337034,22.590248,9.1395,19.929255z"/>
    <path transform="matrix(-1,0,0,-1,25.739702,75.601898)" style="stroke:#0000ff;stroke-width:0.050000mm;fill:none" d="M8.2,7.673892L8.2,4.476108L12.925,4.476108L12.925,7.476109L15.075,7.476109L15.075,2.326108L8.2,2.326108L8.2,-7.673892L-8.2,-7.673892L-8.2,2.326108L-15.075,2.326108L-15.075,7.476109L-12.925,7.476109L-12.925,4.476108L-8.2,4.476108L-8.2,7.477136L-6.05,7.477136L-6.05,-5.523892L6.05,-5.523892L6.05,7.673892L8.2,7.673892z"/>
    <path transform="matrix(1,-0,0,1,15.453503,69.799698)" style="stroke:#0000ff;stroke-width:0.050000mm;fill:none" d="M-12.925,7.476109L-12.925,4.476108L-8.2,4.476108L-8.2,7.477136L-6.05,7.477136L-6.05,-0.598892C-6.05,-2.553909,-5.105291,-4.388429,-3.513812,-5.523892L3.513812,-5.523892C5.105292,-4.388428,6.05,-2.553907,6.05,-0.598892L6.05,7.673892L8.2,7.673892L8.2,4.476108L12.925,4.476108L12.925,7.476109L15.075,7.476109L15.075,2.326108L8.2,2.326108L8.2,-7.673892L-8.2,-7.673892L-8.2,2.326108L-15.075,2.326108L-15.075,7.476109L-12.925,7.476109z"/>
    <path transform="matrix(1,0,0,-1,106.955002,57.5)" style="stroke:#0000ff;stroke-width:0.050000mm;fill:none" d="M8.110068,4.5L8.110068,7.5L12.985068,7.5L12.985068,4.5L14.985068,4.5L14.985068,7.499999L18.985069,7.499999L18.985069,-7.5L14.985068,-7.5L14.985068,-4.5L12.985068,-4.5L12.985068,-7.5L8.110068,-7.5L8.110068,-4.5L6.110068,-4.5L6.110068,-7.5L-6.139932,-7.5L-6.139932,-4.5L-8.139932,-4.5L-8.139932,-7.5L-13.014932,-7.5L-13.014932,-4.5L-15.014932,-4.5L-15.014932,-7.5L-18.985069,-7.5L-18.985069,7.499999L-15.014932,7.499999L-15.014932,4.5L-13.014932,4.5L-13.014932,7.5L-8.139932,7.5L-8.139932,4.5L-6.139932,4.5L-6.139932,7.499999L6.110068,7.499999L6.110068,4.5L8.110068,4.5z"/>
    <rect transform="translate(70,45)" style="stroke:#00e000;stroke-width:0.050000mm;fill:none" x="-70" y="-45" width="140" height="90"/>
    <circle transform="matrix(1,0,0,-1,107.057007,57.328602)" style="stroke:#0000ff;stroke-width:0.050000mm;fill:none" r="21.924999" cx="0" cy="0"/>
    <circle transform="matrix(1,0,0,-1,107.057007,57.328602)" style="stroke:#0000ff;stroke-width:0.050000mm;fill:none" r="31.075001" cx="0" cy="0"/>
    <path transform="matrix(1,0,0,-1,107.057007,57.328602)" style="stroke:#ff0000;stroke-width:0.050000mm;fill:none" d="M12.692472,26.591995L9.828446,27.778313L7.494077,22.142649L10.358104,20.956329L12.692472,26.591995z"/>
    <path transform="matrix(1,0,0,-1,107.057007,57.328602)" style="stroke:#ff0000;stroke-width:0.050000mm;fill:none" d="M29.424999,1.55L23.324999,1.55L23.324999,-1.55L29.424999,-1.55L29.424999,1.55z"/>
    <path transform="matrix(1,0,0,-1,107.057007,57.328602)" style="stroke:#ff0000;stroke-width:0.050000mm;fill:none" d="M21.902632,19.7106L19.7106,21.902632L15.397249,17.589281L17.589281,15.397249L21.902632,19.7106z"/>
    <path transform="matrix(1,0,0,-1,107.057007,57.328602)" style="stroke:#ff0000;stroke-width:0.050000mm;fill:none" d="M22.142649,7.494077L27.778313,9.828446L26.591995,12.692472L20.956329,10.358104L22.142649,7.494077z"/>
    <path transform="matrix(1,0,0,-1,107.057007,57.328602)" style="stroke:#ff0000;stroke-width:0.050000mm;fill:none" d="M20.956329,-10.358104L22.142649,-7.494077L27.778313,-9.828446L26.591995,-12.692472L20.956329,-10.358104z"/>
    <path transform="matrix(1,0,0,-1,107.057007,57.328602)" style="stroke:#ff0000;stroke-width:0.050000mm;fill:none" d="M15.397249,-17.589281L19.7106,-21.902632L21.902632,-19.7106L17.589281,-15.397249L15.397249,-17.589281z"/>
    <path transform="matrix(1,0,0,-1,107.057007,57.328602)" style="stroke:#ff0000;stroke-width:0.050000mm;fill:none" d="M10.358104,-20.956329L7.494077,-22.142649L9.828446,-27.778313L12.692472,-26.591995L10.358104,-20.956329z"/>
    <path transform="matrix(1,0,0,-1,107.057007,57.328602)" style="stroke:#ff0000;stroke-width:0.050000mm;fill:none" d="M-1.55,-23.324999L-1.55,-29.424999L1.55,-29.424999L1.55,-23.324999L-1.55,-23.324999z"/>
    <path transform="matrix(1,0,0,-1,107.057007,57.328602)" style="stroke:#ff0000;stroke-width:0.050000mm;fill:none" d="M-10.358104,-20.956329L-7.494077,-22.142649L-9.828446,-27.778313L-12.692472,-26.591995L-10.358104,-20.956329z"/>
    <path transform="matrix(1,0,0,-1,107.057007,57.328602)" style="stroke:#ff0000;stroke-width:0.050000mm;fill:none" d="M-17.589281,-15.397249L-21.902632,-19.7106L-19.7106,-21.902632L-15.397249,-17.589281L-17.589281,-15.397249z"/>
    <path transform="matrix(1,0,0,-1,107.057007,57.328602)" style="stroke:#ff0000;stroke-width:0.050000mm;fill:none" d="M-22.142649,-7.494077L-27.778313,-9.828446L-26.591995,-12.692472L-20.956329,-10.358104L-22.142649,-7.494077z"/>
    <path transform="matrix(1,0,0,-1,107.057007,57.328602)" style="stroke:#ff0000;stroke-width:0.050000mm;fill:none" d="M-29.424999,1.55L-29.424999,-1.55L-23.324999,-1.55L-23.324999,1.55L-29.424999,1.55z"/>
    <path transform="matrix(1,0,0,-1,107.057007,57.328602)" style="stroke:#ff0000;stroke-width:0.050000mm;fill:none" d="M-26.591995,12.692472L-27.778313,9.828446L-22.142649,7.494077L-20.956329,10.358104L-26.591995,12.692472z"/>
    <path transform="matrix(1,0,0,-1,107.057007,57.328602)" style="stroke:#ff0000;stroke-width:0.050000mm;fill:none" d="M-15.397249,17.589281L-19.7106,21.902632L-21.902632,19.7106L-17.589281,15.397249L-15.397249,17.589281z"/>
    <path transform="matrix(1,0,0,-1,107.057007,57.328602)" style="stroke:#ff0000;stroke-width:0.050000mm;fill:none" d="M-10.358104,20.956329L-7.494077,22.142649L-9.828446,27.778313L-12.692472,26.591995L-10.358104,20.956329z"/>
    <path transform="matrix(1,0,0,-1,107.057007,57.328602)" style="stroke:#ff0000;stroke-width:0.050000mm;fill:none" d="M1.55,23.324999L1.55,29.424999L-1.55,29.424999L-1.55,23.324999L1.55,23.324999z"/>
    <path transform="matrix(-0,-1,-1,0,67.042107,66.552002)" style="stroke:#0000ff;stroke-width:0.050000mm;fill:none" d="M-2.95,-5.075L-4.075,-5.075L-4.075,5.075L-2.95,5.075L-2.95,8.075L2.95,8.075L2.95,5.075L4.075,5.075L4.075,-5.075L2.95,-5.075L2.95,-8.075L-2.95,-8.075L-2.95,-5.075z"/>
    <path transform="matrix(1,0,0,-1,64.989601,52.924999)" style="stroke:#0000ff;stroke-width:0.050000mm;fill:none" d="M-2.95,-5.075L-4.075,-5.075L-4.075,5.075L-2.95,5.075L-2.95,8.075L2.95,8.075L2.95,5.075L4.075,5.075L4.075,-5.075L2.95,-5.075L2.95,-8.075L-2.95,-8.075L-2.95,-5.075z"/>
    <path transform="translate(92.108002,20.474001)" style="stroke:#d0d000;stroke-width:0.050000mm;fill:none" d="M-16,-0.533333L-15.666667,1.466667L-15.333333,0.466667L-15,1.466667L-14.666667,-0.533333M-13.333334,1.466667L-13.666667,1.466667L-14,1.133333L-14,0.466667L-13.666667,0.133333L-13.333334,0.133333L-13,0.466667L-13,1.133333L-13.333334,1.466667M-13,1.133333L-12.666667,1.466667M-12,0.133333L-10.666667,0.133333M-11.333334,-0.533333L-11.333334,1.133333L-11,1.466667L-10.666667,1.133333M-10,0.8L-9,0.8L-8.666667,0.466667L-9,0.133333L-9.666667,0.133333L-10,0.466667L-10,1.133333L-9.666667,1.466667L-9,1.466667M-8,1.466667L-8,0.133333M-8,0.8L-7.333334,0.133333L-7.000001,0.133333L-6.666667,0.466667M-6.000001,-0.533333L-5.666668,1.466667L-5.333334,0.466667L-5,1.466667L-4.666668,-0.533333M-4,1.466667L-4,-0.533333M-4,0.8L-3.333334,0.133333L-3,0.133333L-2.666668,0.466667L-2.666668,1.466667M-2,0.8L-1,0.8L-0.666668,0.466667L-1,0.133333L-1.666668,0.133333L-2,0.466667L-2,1.133333L-1.666668,1.466667L-1,1.466667M0,0.8L0.999998,0.8L1.333332,0.466667L0.999998,0.133333L0.333332,0.133333L0,0.466667L0,1.133333L0.333332,1.466667L0.999998,1.466667M2.666666,-0.533333L2.666666,1.133333L2.999998,1.466667M6,1.466667L6,-0.533333L7,-0.533333L7.333332,-0.2L7.333332,0.133333L7,0.466667L6,0.466667M9,0.466667L9.333332,0.466667L9.333332,1.466667L8.333332,1.466667L8,1.133333L8,-0.2L8.333332,-0.533333L9.333332,-0.533333M10.333332,-0.2L10.666664,-0.533333L10.666664,1.466667M10.333332,1.466667L11,1.466667M12,1.466667L12,1.133333M14.333332,1.466667L14,1.133333L14,-0.2L14.333332,-0.533333L15,-0.533333L15.333332,-0.2L15.333332,1.133333L15,1.466667L14.333332,1.466667"/>
    <path transform="translate(93.378799,23.4536)" style="stroke:#d0d000;stroke-width:0.050000mm;fill:none" d="M-13,0.466667L-12.666667,0.466667L-12.666667,1.466667L-13.666667,1.466667L-14,1.133333L-14,-0.2L-13.666667,-0.533333L-12.666667,-0.533333M-12,1.466667L-12,0.8L-11.333334,-0.533333L-10.666667,0.8L-10.666667,1.466667M-12,0.8L-10.666667,0.8M-9.666667,-0.2L-9.333334,-0.533333L-9.333334,1.466667M-9.666667,1.466667L-9,1.466667M-8,-0.2L-7.666667,-0.533333L-7,-0.533333L-6.666667,-0.2L-6.666667,0.133333L-7,0.466667L-7.666667,0.466667L-8,0.8L-8,1.466667L-6.666667,1.466667M-6,0.466667L-4.666667,0.466667M-4.000001,1.466667L-4.000001,-0.533333L-2.666668,1.466667L-2.666668,-0.533333M-2,-0.2L-1.666668,-0.533333L-1,-0.533333L-0.666668,-0.2L-0.666668,0.133333L-1,0.466667L-1.666668,0.466667L-2,0.8L-2,1.466667L-0.666668,1.466667M0.333332,1.466667L0,1.133333L0,-0.2L0.333332,-0.533333L1,-0.533333L1.333332,-0.2L1.333332,1.133333L1,1.466667L0.333332,1.466667M3.999998,1.466667L3.999998,-0.533333L4.666666,0.8L5.333332,-0.533333L5.333332,1.466667M7,1.466667L6.333332,1.466667L5.999998,1.133333L5.999998,0.466667L6.333332,0.133333L7,0.133333L7.333332,0.466667L7.333332,1.133333L7,1.466667M8,0.133333L9.333332,0.133333M8.666664,-0.533333L8.666664,1.133333L9,1.466667L9.333332,1.133333M11,1.466667L10.333332,1.466667L10,1.133333L10,0.466667L10.333332,0.133333L11,0.133333L11.333332,0.466667L11.333332,1.133333L11,1.466667M12,1.466667L12,0.133333M12,0.8L12.666664,0.133333L13,0.133333L13.333332,0.466667"/>
    <path transform="translate(107.508347,44.5)" style="stroke:#d0d000;stroke-width:0.050000mm;fill:none" d="M-14,-2L-12.666667,-2M-13.333333,-2L-13.333333,0M-12,-0.666667L-11,-0.666667L-10.666667,-1L-11,-1.333333L-11.666667,-1.333333L-12,-1L-12,-0.333333L-11.666667,0L-11,0M-10,0L-10,-1.333333M-10,-0.666667L-9.333334,-1.333333L-9,-1.333333L-8.666667,-1M-8,0L-8,-1.333333M-8,-0.666667L-7.333334,-1.333333L-7,-1.333333L-6.666667,-1M-5.333334,0L-5.666667,0L-6,-0.333333L-6,-1L-5.666667,-1.333333L-5.333334,-1.333333L-5.000001,-1L-5.000001,-0.333333L-5.333334,0M-5.000001,-0.333333L-4.666667,0M-3.333334,0L-3.333334,-1M-3.333334,-1.333333L-3.333334,-1.666667M-2,0L-2,-1.333333M-2,-0.666667L-1.333334,-1.333333L-1,-1.333333L-0.666668,-1L-0.666668,0M0,-2L1.333332,-2M0.666666,-2L0.666666,0M2,0L2,-1.333333M2,-0.666667L2.666666,-1.333333L2.999998,-1.333333L3.333332,-1M4.999998,0L4.333332,0L3.999998,-0.333333L3.999998,-1L4.333332,-1.333333L4.999998,-1.333333L5.333332,-1L5.333332,-0.333333L4.999998,0M5.999998,0L5.999998,-1.333333M5.999998,-0.666667L6.666664,-1.333333L7,-1.333333L7.333332,-1L7.333332,0M8.666664,0L8.666664,-1M8.666664,-1.333333L8.666664,-1.666667M11.333332,-1.333333L10.333332,-1.333333L10,-1L10,-0.333333L10.333332,0L11.333332,0M12,0L13,0L13.333332,-0.333333L13,-0.666667L12.333332,-0.666667L12,-1L12.333332,-1.333333L13.333332,-1.333333M-8.666666,1.266667L-8.333332,0.933333L-8.333332,2.933333M-8.666666,2.933333L-7.999999,2.933333M-6.666666,1.266667L-6.333333,0.933333L-6.333333,2.933333M-6.666666,2.933333L-5.999999,2.933333M-4.999999,2.933333L-3.666666,0.933333M-2.999999,0.933333L-1.666666,0.933333L-2.666666,2.933333M-0.999999,2.933333L0.333334,0.933333M1,1.266667L1.333333,0.933333L2.000001,0.933333L2.333333,1.266667L2.333333,1.6L2.000001,1.933333L1.333333,1.933333L1,2.266667L1,2.933333L2.333333,2.933333M3.333333,2.933333L3.000001,2.6L3.000001,1.266667L3.333333,0.933333L4.000001,0.933333L4.333333,1.266667L4.333333,2.6L4.000001,2.933333L3.333333,2.933333M5.000001,1.266667L5.333333,0.933333L6.000001,0.933333L6.333333,1.266667L6.333333,1.6L6.000001,1.933333L5.333333,1.933333L5.000001,2.266667L5.000001,2.933333L6.333333,2.933333M7.000001,1.266667L7.333333,0.933333L7.999999,0.933333L8.333333,1.266667L8.333333,1.6L7.999999,1.933333L7.666667,1.933333M7.999999,1.933333L8.333333,2.266667L8.333333,2.6L7.999999,2.933333L7.333333,2.933333L7.000001,2.6"/>
    <path transform="matrix(1,0,0,-1,70.771301,26.579399)" style="stroke:#ff0000;stroke-width:0.050000mm;fill:none" d="M0.98995,1.025C1.40777,0.621467,1.538836,0.004715,1.321221,-0.533854C1.103606,-1.072423,0.580873,-1.425,-0,-1.425C-0.580873,-1.425,-1.103606,-1.072423,-1.321221,-0.533854C-1.538836,0.004715,-1.40777,0.621467,-0.98995,1.025L0.98995,1.025z"/>
    <circle transform="translate(70.771301,26.7794)" style="stroke:#0000ff;stroke-width:0.050000mm;fill:none" r="7" cx="0" cy="0"/>
    <path transform="matrix(1,0,0,-1,132.115005,26.749701)" style="stroke:#ff0000;stroke-width:0.050000mm;fill:none" d="M0.98995,1.025C1.40777,0.621467,1.538836,0.004715,1.321221,-0.533854C1.103606,-1.072423,0.580873,-1.425,-0,-1.425C-0.580873,-1.425,-1.103606,-1.072423,-1.321221,-0.533854C-1.538836,0.004715,-1.40777,0.621467,-0.98995,1.025L0.98995,1.025z"/>
    <circle transform="translate(132.115005,26.949699)" style="stroke:#0000ff;stroke-width:0.050000mm;fill:none" r="7" cx="0" cy="0"/>
</svg>
